<svg width="28" height="28" viewBox="0 0 28 28" fill="none" xmlns="http://www.w3.org/2000/svg">
<path d="M12.2499 19.2499C13.1692 19.2499 14.0794 19.0689 14.9287 18.7171C15.778 18.3653 16.5497 17.8497 17.1997 17.1997C17.8497 16.5497 18.3653 15.778 18.7171 14.9287C19.0689 14.0794 19.2499 13.1692 19.2499 12.2499C19.2499 11.3307 19.0689 10.4204 18.7171 9.57115C18.3653 8.72187 17.8497 7.9502 17.1997 7.30019C16.5497 6.65018 15.778 6.13456 14.9287 5.78278C14.0794 5.431 13.1692 5.24994 12.2499 5.24994C10.3934 5.24994 8.61294 5.98743 7.30019 7.30019C5.98743 8.61294 5.24994 10.3934 5.24994 12.2499C5.24994 14.1065 5.98743 15.8869 7.30019 17.1997C8.61294 18.5124 10.3934 19.2499 12.2499 19.2499V19.2499ZM19.6233 17.9736L23.7999 22.1503C23.9113 22.258 24.0001 22.3868 24.0611 22.5292C24.1222 22.6715 24.1542 22.8246 24.1555 22.9796C24.1567 23.1345 24.1271 23.2881 24.0683 23.4314C24.0095 23.5747 23.9228 23.7049 23.8132 23.8144C23.7036 23.9239 23.5733 24.0104 23.4299 24.069C23.2864 24.1275 23.1328 24.1569 22.9779 24.1555C22.823 24.154 22.6699 24.1217 22.5276 24.0605C22.3853 23.9992 22.2566 23.9103 22.1491 23.7988L17.9724 19.6221C16.097 21.0779 13.7372 21.7643 11.3735 21.5415C9.00977 21.3187 6.81981 20.2035 5.24941 18.4228C3.67902 16.6422 2.84623 14.33 2.9206 11.957C2.99496 9.58399 3.97088 7.3285 5.64969 5.64969C7.3285 3.97088 9.58399 2.99496 11.957 2.9206C14.33 2.84623 16.6422 3.67902 18.4228 5.24941C20.2035 6.81981 21.3187 9.00977 21.5415 11.3735C21.7643 13.7372 21.0779 16.097 19.6221 17.9724L19.6233 17.9736Z" fill="#2C3848"/>
</svg>
