<svg width="33" height="33" viewBox="0 0 33 33" fill="none" xmlns="http://www.w3.org/2000/svg">
<path d="M23.375 12.3021C22.869 12.5221 22.3259 12.6734 21.7552 12.7394C22.3382 12.3956 22.7837 11.8511 22.9955 11.2035C22.4482 11.5211 21.846 11.7535 21.2025 11.8773C20.937 11.5989 20.6175 11.3776 20.2636 11.2268C19.9097 11.076 19.5288 10.9988 19.1441 11C17.5862 11 16.324 12.2444 16.324 13.7775C16.324 13.9948 16.3487 14.2065 16.3969 14.41C15.2794 14.357 14.1854 14.0715 13.1844 13.572C12.1834 13.0725 11.2976 12.3698 10.5834 11.5088C10.3325 11.931 10.2005 12.4132 10.2011 12.9044C10.2011 13.8669 10.7002 14.7194 11.4565 15.2158C11.0089 15.2017 10.5708 15.0826 10.1777 14.8679V14.9023C10.182 15.5478 10.4098 16.1719 10.8225 16.6682C11.2352 17.1646 11.8071 17.5027 12.441 17.6248C12.0249 17.7348 11.5895 17.7508 11.1664 17.6715C11.3508 18.2268 11.7036 18.7109 12.1757 19.0567C12.6478 19.4024 13.2158 19.5925 13.8009 19.6006C12.7971 20.3742 11.5646 20.7921 10.2974 20.7886C10.0705 20.7886 9.84637 20.7749 9.625 20.7501C10.9181 21.5687 12.4176 22.0022 13.948 22C19.1372 22 21.9739 17.7678 21.9739 14.0965L21.9642 13.7363C22.5174 13.3475 22.9954 12.8616 23.375 12.3021V12.3021Z" fill="#00C2FF"/>
<path d="M8.25 5.5C7.52065 5.5 6.82118 5.78973 6.30546 6.30546C5.78973 6.82118 5.5 7.52066 5.5 8.25V24.75C5.5 25.4793 5.78973 26.1788 6.30546 26.6945C6.82118 27.2103 7.52065 27.5 8.25 27.5H24.75C25.4793 27.5 26.1788 27.2103 26.6945 26.6945C27.2103 26.1788 27.5 25.4793 27.5 24.75V8.25C27.5 7.52066 27.2103 6.82118 26.6945 6.30546C26.1788 5.78973 25.4793 5.5 24.75 5.5H8.25ZM8.25 2.75H24.75C26.2087 2.75 27.6076 3.32946 28.6391 4.36091C29.6705 5.39236 30.25 6.79131 30.25 8.25V24.75C30.25 26.2087 29.6705 27.6076 28.6391 28.6391C27.6076 29.6705 26.2087 30.25 24.75 30.25H8.25C6.79131 30.25 5.39236 29.6705 4.36091 28.6391C3.32946 27.6076 2.75 26.2087 2.75 24.75V8.25C2.75 6.79131 3.32946 5.39236 4.36091 4.36091C5.39236 3.32946 6.79131 2.75 8.25 2.75V2.75Z" fill="#00C2FF"/>
</svg>
