<svg width="28" height="29" viewBox="0 0 28 29" fill="none" xmlns="http://www.w3.org/2000/svg">
<path d="M5.5 3.5C4.77065 3.5 4.07118 3.78973 3.55546 4.30546C3.03973 4.82118 2.75 5.52065 2.75 6.25V22.75C2.75 23.4793 3.03973 24.1788 3.55546 24.6945C4.07118 25.2103 4.77065 25.5 5.5 25.5H22C22.7293 25.5 23.4288 25.2103 23.9445 24.6945C24.4603 24.1788 24.75 23.4793 24.75 22.75V6.25C24.75 5.52065 24.4603 4.82118 23.9445 4.30546C23.4288 3.78973 22.7293 3.5 22 3.5H5.5ZM5.5 0.75H22C23.4587 0.75 24.8576 1.32946 25.8891 2.36091C26.9205 3.39236 27.5 4.79131 27.5 6.25V22.75C27.5 24.2087 26.9205 25.6076 25.8891 26.6391C24.8576 27.6705 23.4587 28.25 22 28.25H5.5C4.04131 28.25 2.64236 27.6705 1.61091 26.6391C0.579463 25.6076 0 24.2087 0 22.75V6.25C0 4.79131 0.579463 3.39236 1.61091 2.36091C2.64236 1.32946 4.04131 0.75 5.5 0.75Z" fill="#1DB954"/>
<path d="M12.0321 13.9617C12.1062 14.347 12.1 14.7434 12.0136 15.1262L15.5836 16.9232C16.0284 16.3962 16.6501 16.0495 17.3322 15.9481C18.0143 15.8467 18.71 15.9975 19.2888 16.3723C19.8677 16.7471 20.29 17.3202 20.4766 17.984C20.6631 18.6479 20.6012 19.357 20.3024 19.9785C20.0035 20.6 19.4883 21.0912 18.8532 21.3599C18.2181 21.6287 17.5069 21.6566 16.8527 21.4385C16.1985 21.2204 15.6463 20.7712 15.2996 20.175C14.953 19.5789 14.8356 18.8768 14.9695 18.2004L11.3641 16.3856C10.9794 16.817 10.472 17.1205 9.90988 17.2553C9.34777 17.39 8.7579 17.3496 8.21942 17.1395C7.68093 16.9294 7.21959 16.5596 6.8973 16.0798C6.57501 15.5999 6.4072 15.033 6.41637 14.455C6.42555 13.8771 6.61128 13.3157 6.94863 12.8464C7.28599 12.377 7.75884 12.022 8.30372 11.8291C8.84861 11.6362 9.43947 11.6146 9.99701 11.7671C10.5545 11.9196 11.0521 12.239 11.4229 12.6824L14.9901 10.896C14.8328 10.2246 14.9258 9.51889 15.2516 8.91113C15.5774 8.30336 16.1137 7.83529 16.7599 7.59464C17.4062 7.35398 18.118 7.35727 18.762 7.60388C19.406 7.8505 19.9379 8.3235 20.2581 8.93425C20.5783 9.545 20.6648 10.2516 20.5013 10.9215C20.3378 11.5914 19.9356 12.1787 19.3701 12.5734C18.8046 12.968 18.1146 13.1428 17.4294 13.0651C16.7442 12.9874 16.1109 12.6625 15.6481 12.1512L12.0321 13.9617Z" fill="#1DB954"/>
</svg>
