<svg width="35" height="35" viewBox="0 0 35 35" fill="none" xmlns="http://www.w3.org/2000/svg">
<path d="M23.3585 2.9165H11.5897C9.29013 2.91921 7.08554 3.834 5.45964 5.46018C3.83373 7.08636 2.91931 9.2911 2.91699 11.5907L2.91699 23.3594C2.91969 25.659 3.83449 27.8636 5.46067 29.4895C7.08685 31.1154 9.29159 32.0298 11.5912 32.0321H23.3599C25.6595 32.0294 27.8641 31.1146 29.49 29.4885C31.1159 27.8623 32.0303 25.6575 32.0326 23.358V11.5892C32.0299 9.28964 31.1151 7.08506 29.4889 5.45915C27.8628 3.83325 25.658 2.91882 23.3585 2.9165V2.9165ZM29.1043 23.358C29.1043 24.1125 28.9557 24.8597 28.6669 25.5568C28.3782 26.2539 27.9549 26.8873 27.4214 27.4209C26.8878 27.9544 26.2544 28.3777 25.5573 28.6664C24.8602 28.9552 24.113 29.1038 23.3585 29.1038H11.5897C10.0661 29.1034 8.60496 28.4979 7.52773 27.4204C6.45049 26.3429 5.84533 24.8816 5.84533 23.358V11.5892C5.84571 10.0656 6.45125 8.60448 7.52876 7.52724C8.60627 6.45 10.0675 5.84484 11.5912 5.84484H23.3599C24.8835 5.84522 26.3446 6.45076 27.4219 7.52827C28.4991 8.60578 29.1043 10.067 29.1043 11.5907V23.3594V23.358Z" fill="#FF932F"/>
<path d="M17.4742 9.94482C15.4784 9.94791 13.5652 10.7422 12.1541 12.1536C10.7429 13.565 9.94899 15.4784 9.94629 17.4742C9.9486 19.4705 10.7426 21.3845 12.1541 22.7962C13.5655 24.208 15.4793 25.0023 17.4757 25.005C19.4723 25.0027 21.3864 24.2085 22.7982 22.7967C24.21 21.3849 25.0042 19.4708 25.0065 17.4742C25.0034 15.4779 24.2087 13.5642 22.7967 12.153C21.3846 10.7418 19.4705 9.94821 17.4742 9.94628V9.94482ZM17.4742 22.0767C16.2539 22.0767 15.0836 21.5919 14.2208 20.7291C13.3579 19.8662 12.8732 18.6959 12.8732 17.4757C12.8732 16.2554 13.3579 15.0851 14.2208 14.2222C15.0836 13.3594 16.2539 12.8746 17.4742 12.8746C18.6945 12.8746 19.8648 13.3594 20.7276 14.2222C21.5905 15.0851 22.0752 16.2554 22.0752 17.4757C22.0752 18.6959 21.5905 19.8662 20.7276 20.7291C19.8648 21.5919 18.6945 22.0767 17.4742 22.0767V22.0767Z" fill="#FF932F"/>
<path d="M25.0188 11.8052C26.0151 11.8052 26.8228 10.9975 26.8228 10.0012C26.8228 9.00493 26.0151 8.19727 25.0188 8.19727C24.0225 8.19727 23.2148 9.00493 23.2148 10.0012C23.2148 10.9975 24.0225 11.8052 25.0188 11.8052Z" fill="#FF932F"/>
</svg>
