<svg width="33" height="33" viewBox="0 0 33 33" fill="none" xmlns="http://www.w3.org/2000/svg">
<path d="M14.7053 12.2884V14.1818H13.3193V16.4959H14.7053V23.375H17.5543V16.4959H19.4656C19.4656 16.4959 19.6457 15.3863 19.7323 14.1721H17.5653V12.5909C17.5653 12.353 17.8761 12.0354 18.1841 12.0354H19.7351V9.625H17.6245C14.6352 9.625 14.7053 11.9419 14.7053 12.2884Z" fill="#0075FF"/>
<path d="M8.25 5.5C7.52065 5.5 6.82118 5.78973 6.30546 6.30546C5.78973 6.82118 5.5 7.52065 5.5 8.25V24.75C5.5 25.4793 5.78973 26.1788 6.30546 26.6945C6.82118 27.2103 7.52065 27.5 8.25 27.5H24.75C25.4793 27.5 26.1788 27.2103 26.6945 26.6945C27.2103 26.1788 27.5 25.4793 27.5 24.75V8.25C27.5 7.52065 27.2103 6.82118 26.6945 6.30546C26.1788 5.78973 25.4793 5.5 24.75 5.5H8.25ZM8.25 2.75H24.75C26.2087 2.75 27.6076 3.32946 28.6391 4.36091C29.6705 5.39236 30.25 6.79131 30.25 8.25V24.75C30.25 26.2087 29.6705 27.6076 28.6391 28.6391C27.6076 29.6705 26.2087 30.25 24.75 30.25H8.25C6.79131 30.25 5.39236 29.6705 4.36091 28.6391C3.32946 27.6076 2.75 26.2087 2.75 24.75V8.25C2.75 6.79131 3.32946 5.39236 4.36091 4.36091C5.39236 3.32946 6.79131 2.75 8.25 2.75Z" fill="#0075FF"/>
</svg>
