<svg width="34" height="33" viewBox="0 0 34 33" fill="none" xmlns="http://www.w3.org/2000/svg">
<path d="M21.1412 11.7236H12.8594C11.2345 11.7236 9.91699 12.9886 9.91699 14.5479V18.5216C9.91699 20.0823 11.2345 21.3459 12.8594 21.3459H21.1412C22.7662 21.3459 24.0837 20.0809 24.0837 18.5216V14.5479C24.0837 12.9873 22.7662 11.7236 21.1412 11.7236ZM19.1522 16.7286L15.2777 18.5024C15.254 18.5133 15.2278 18.5181 15.2016 18.5166C15.1755 18.5151 15.1501 18.5071 15.128 18.4936C15.1058 18.48 15.0875 18.4612 15.0748 18.439C15.0621 18.4167 15.0553 18.3917 15.0552 18.3663V14.7088C15.0555 14.683 15.0625 14.6577 15.0756 14.6353C15.0888 14.6129 15.1076 14.5941 15.1303 14.5808C15.153 14.5674 15.1788 14.5599 15.2054 14.559C15.2319 14.558 15.2583 14.5637 15.2819 14.5754L19.1551 16.4591C19.2698 16.5169 19.2684 16.675 19.1522 16.7286V16.7286Z" fill="#FF4242"/>
<path d="M8.49967 5.5C7.74823 5.5 7.02756 5.78973 6.49621 6.30546C5.96485 6.82118 5.66634 7.52065 5.66634 8.25V24.75C5.66634 25.4793 5.96485 26.1788 6.49621 26.6945C7.02756 27.2103 7.74823 27.5 8.49967 27.5H25.4997C26.2511 27.5 26.9718 27.2103 27.5031 26.6945C28.0345 26.1788 28.333 25.4793 28.333 24.75V8.25C28.333 7.52065 28.0345 6.82118 27.5031 6.30546C26.9718 5.78973 26.2511 5.5 25.4997 5.5H8.49967ZM8.49967 2.75H25.4997C27.0026 2.75 28.4439 3.32946 29.5066 4.36091C30.5693 5.39236 31.1663 6.79131 31.1663 8.25V24.75C31.1663 26.2087 30.5693 27.6076 29.5066 28.6391C28.4439 29.6705 27.0026 30.25 25.4997 30.25H8.49967C6.99678 30.25 5.55544 29.6705 4.49274 28.6391C3.43003 27.6076 2.83301 26.2087 2.83301 24.75V8.25C2.83301 6.79131 3.43003 5.39236 4.49274 4.36091C5.55544 3.32946 6.99678 2.75 8.49967 2.75V2.75Z" fill="#FF4242"/>
</svg>
