<svg width="16" height="16" viewBox="0 0 16 16" fill="none" xmlns="http://www.w3.org/2000/svg">
<path d="M12.6667 2.66675H3.33337C2.80294 2.66675 2.29423 2.87746 1.91916 3.25253C1.54409 3.62761 1.33337 4.13631 1.33337 4.66675V11.3334C1.33337 11.8638 1.54409 12.3726 1.91916 12.7476C2.29423 13.1227 2.80294 13.3334 3.33337 13.3334H12.6667C13.1971 13.3334 13.7058 13.1227 14.0809 12.7476C14.456 12.3726 14.6667 11.8638 14.6667 11.3334V4.66675C14.6667 4.13631 14.456 3.62761 14.0809 3.25253C13.7058 2.87746 13.1971 2.66675 12.6667 2.66675ZM12.6667 4.00008L8.33337 6.98008C8.23203 7.03859 8.11707 7.0694 8.00004 7.0694C7.88302 7.0694 7.76805 7.03859 7.66671 6.98008L3.33337 4.00008H12.6667Z" fill="white"/>
</svg>
