<svg width="14" height="13" viewBox="0 0 14 13" fill="none" xmlns="http://www.w3.org/2000/svg">
<path fill-rule="evenodd" clip-rule="evenodd" d="M8.35714 5.499C8.45737 5.49134 8.55751 5.51487 8.64459 5.56654C8.73167 5.61821 8.80166 5.69563 8.84549 5.78876C8.88931 5.8819 8.90495 5.98644 8.89038 6.08884C8.8758 6.19124 8.83168 6.28677 8.76374 6.36303C8.6958 6.43929 8.60717 6.49277 8.50936 6.51652C8.41154 6.54028 8.30905 6.53322 8.21518 6.49626C8.12131 6.4593 8.04039 6.39415 7.98291 6.30925C7.92544 6.22435 7.89406 6.12363 7.89286 6.02014C7.88902 5.8881 7.93541 5.75973 8.02213 5.66239C8.10886 5.56504 8.22906 5.50642 8.35714 5.499V5.499ZM8.35714 4.58579C8.08829 4.59053 7.82673 4.67665 7.60509 4.83343C7.38344 4.99021 7.21151 5.21071 7.11074 5.46744C7.00996 5.72416 6.9848 6.00575 7.03839 6.27711C7.09197 6.54846 7.22194 6.79757 7.41207 6.99337C7.60221 7.18917 7.84411 7.323 8.10761 7.37819C8.37112 7.43337 8.64456 7.40746 8.89386 7.30368C9.14316 7.1999 9.35728 7.02285 9.50952 6.79461C9.66177 6.56636 9.7454 6.29701 9.75 6.02014C9.75 5.63973 9.60325 5.2749 9.34204 5.00591C9.08083 4.73691 8.72655 4.58579 8.35714 4.58579ZM8.35714 4.04074C8.60982 4.03816 8.86045 4.08767 9.09427 4.18635C9.32809 4.28503 9.54037 4.43089 9.71862 4.61534C9.89687 4.79979 10.0375 5.0191 10.1322 5.26036C10.2269 5.50162 10.2737 5.75995 10.27 6.02014C10.2166 6.79319 10.0012 7.54515 9.63857 8.22426C9.47075 8.55683 9.25118 8.85885 8.98857 9.11834C8.82461 9.29468 8.60289 9.40203 8.36643 9.41956C8.1309 9.40362 7.91011 9.29592 7.74893 9.11834C7.48632 8.85885 7.26675 8.55683 7.09893 8.22426C6.73424 7.54605 6.51868 6.79361 6.4675 6.02014C6.46566 5.7634 6.51318 5.50881 6.60732 5.27106C6.70146 5.03331 6.84036 4.8171 7.01601 4.63488C7.19167 4.45266 7.4006 4.30804 7.63078 4.20935C7.86095 4.11066 8.10782 4.05986 8.35714 4.05986V4.04074ZM5.10714 1.03339L7.1825 1.75056C7.43185 1.83233 7.68846 1.88838 7.94857 1.9179V3.20404C7.30307 3.31638 6.71661 3.65924 6.2921 4.17245C5.8676 4.68567 5.63217 5.33644 5.62714 6.01058C5.6668 6.93659 5.91984 7.8396 6.36536 8.64501C6.57771 9.06728 6.85881 9.44893 7.19643 9.77336C7.41723 9.97954 7.67849 10.1344 7.9625 10.2276V10.9543C7.9625 11.0127 7.97367 11.0705 7.99537 11.1245C8.01707 11.1784 8.04887 11.2274 8.08897 11.2687C8.12906 11.31 8.17666 11.3428 8.22905 11.3651C8.28144 11.3875 8.33758 11.399 8.39429 11.399C8.45099 11.399 8.50714 11.3875 8.55952 11.3651C8.61191 11.3428 8.65951 11.31 8.6996 11.2687C8.7397 11.2274 8.7715 11.1784 8.7932 11.1245C8.8149 11.0705 8.82607 11.0127 8.82607 10.9543V10.2276C9.11093 10.1364 9.37258 9.98129 9.59214 9.77336C9.93122 9.44912 10.2139 9.06749 10.4279 8.64501C10.8621 7.8396 11.107 6.94061 11.1429 6.02014C11.1411 5.34353 10.9072 4.68934 10.4824 4.17316C10.0576 3.65697 9.46928 3.31202 8.82143 3.19925V1.92268C9.08169 1.89155 9.3383 1.83389 9.5875 1.75056L11.6861 1.0286C11.7394 1.00914 11.7966 1.00337 11.8527 1.01181C11.9087 1.02024 11.9619 1.04262 12.0076 1.077C12.0534 1.11138 12.0903 1.15673 12.1151 1.20911C12.14 1.2615 12.1521 1.31934 12.1504 1.37763V10.1702C12.1503 10.4063 12.0781 10.6363 11.9439 10.8277C11.8097 11.0191 11.6204 11.1621 11.4029 11.2364L9.28571 11.9536C8.68294 12.1603 8.03135 12.1603 7.42857 11.9536L5.35321 11.2364C5.10488 11.1517 4.84778 11.0971 4.58714 11.0738V2.46774C4.58612 2.35466 4.5433 2.24624 4.4674 2.16452C4.3915 2.08281 4.28822 2.03394 4.17857 2.02787C4.12169 2.02785 4.06538 2.03954 4.01294 2.06224C3.9605 2.08494 3.91299 2.1182 3.8732 2.16006C3.83342 2.20193 3.80215 2.25155 3.78124 2.30603C3.76033 2.36051 3.75019 2.41873 3.75143 2.4773V11.0834C3.48508 11.1182 3.22341 11.184 2.97143 11.2794L1.30929 11.9249C1.2587 11.9531 1.20158 11.9665 1.14411 11.9638C1.08664 11.961 1.031 11.9421 0.983205 11.9091C0.935408 11.8761 0.897271 11.8303 0.872913 11.7766C0.848555 11.723 0.838903 11.6635 0.845 11.6045V2.82154C0.849576 2.57802 0.926283 2.34176 1.06485 2.14437C1.20342 1.94699 1.39724 1.79791 1.62036 1.71709L3.27321 1.06685C3.56266 0.953911 3.86907 0.894038 4.17857 0.88995C4.49375 0.883312 4.80773 0.931812 5.10714 1.03339V1.03339ZM4.17857 0.000652446C3.76591 0.00466455 3.3572 0.0839844 2.97143 0.23493L1.30929 0.870825C0.924419 1.02046 0.592957 1.2873 0.359053 1.63579C0.125148 1.98429 -9.70806e-05 2.3979 5.64601e-08 2.82154V11.6045C0.00273955 11.8031 0.0514551 11.9981 0.142099 12.1734C0.232742 12.3487 0.362696 12.4991 0.521161 12.6123C0.679627 12.7254 0.862027 12.798 1.05321 12.824C1.24438 12.85 1.43882 12.8286 1.62036 12.7616L3.27321 12.1209C3.86224 11.8923 4.50962 11.8788 5.10714 12.0827L7.1825 12.7998C7.96063 13.063 8.80008 13.063 9.57821 12.7998L11.6768 12.0827C12.0658 11.9478 12.404 11.6907 12.6438 11.3477C12.8836 11.0047 13.0131 10.5929 13.0139 10.1702V1.37763C13.0115 1.1788 12.9638 0.983331 12.8747 0.806915C12.7856 0.6305 12.6576 0.478055 12.5009 0.36182C12.3443 0.245585 12.1633 0.1688 11.9726 0.137629C11.7819 0.106458 11.5868 0.121771 11.4029 0.182337L9.28571 0.904293C8.68294 1.11101 8.03135 1.11101 7.42857 0.904293L5.36714 0.187118C4.98412 0.0558595 4.58217 -0.00719884 4.17857 0.000652446V0.000652446Z" fill="white"/>
</svg>
