<svg width="16" height="16" viewBox="0 0 16 16" fill="none" xmlns="http://www.w3.org/2000/svg">
<path d="M8.66667 5.33333C9.1971 5.33333 9.70581 5.54405 10.0809 5.91912C10.456 6.29419 10.6667 6.8029 10.6667 7.33333C10.6667 7.51014 10.7369 7.67971 10.8619 7.80474C10.987 7.92976 11.1565 8 11.3333 8C11.5101 8 11.6797 7.92976 11.8047 7.80474C11.9298 7.67971 12 7.51014 12 7.33333C12 6.44928 11.6488 5.60143 11.0237 4.97631C10.3986 4.35119 9.55072 4 8.66667 4C8.48986 4 8.32029 4.07024 8.19526 4.19526C8.07024 4.32029 8 4.48986 8 4.66667C8 4.84348 8.07024 5.01305 8.19526 5.13807C8.32029 5.2631 8.48986 5.33333 8.66667 5.33333Z" fill="white"/>
<path d="M8.66667 2.66659C9.90434 2.66659 11.0913 3.15825 11.9665 4.03342C12.8417 4.90859 13.3333 6.09557 13.3333 7.33325C13.3333 7.51006 13.4036 7.67963 13.5286 7.80466C13.6536 7.92968 13.8232 7.99992 14 7.99992C14.1768 7.99992 14.3464 7.92968 14.4714 7.80466C14.5964 7.67963 14.6667 7.51006 14.6667 7.33325C14.6667 5.74195 14.0345 4.21583 12.9093 3.09061C11.7841 1.96539 10.258 1.33325 8.66667 1.33325C8.48986 1.33325 8.32029 1.40349 8.19526 1.52851C8.07024 1.65354 8 1.82311 8 1.99992C8 2.17673 8.07024 2.3463 8.19526 2.47132C8.32029 2.59635 8.48986 2.66659 8.66667 2.66659Z" fill="white"/>
<path d="M14.5 10.6066C14.4634 10.4996 14.4001 10.4036 14.3161 10.3278C14.2321 10.252 14.1302 10.1988 14.02 10.1733L10.02 9.25992C9.91147 9.2353 9.79845 9.23827 9.69132 9.26854C9.58418 9.29882 9.48634 9.35545 9.40671 9.43325C9.31337 9.51992 9.30671 9.52659 8.87337 10.3533C7.43551 9.69069 6.28337 8.53382 5.62671 7.09325C6.47337 6.66659 6.48004 6.66659 6.56671 6.56659C6.64451 6.48696 6.70114 6.38911 6.73142 6.28197C6.76169 6.17484 6.76466 6.06183 6.74004 5.95325L5.82671 1.99992C5.80114 1.88972 5.74795 1.78783 5.67214 1.70386C5.59633 1.61989 5.5004 1.55659 5.39337 1.51992C5.23769 1.46431 5.07691 1.42412 4.91337 1.39992C4.74488 1.36085 4.57293 1.33852 4.40004 1.33325C3.58671 1.33325 2.80669 1.65635 2.23158 2.23146C1.65647 2.80657 1.33337 3.58659 1.33337 4.39992C1.3369 7.12173 2.4197 9.73104 4.34431 11.6557C6.26892 13.5803 8.87823 14.6631 11.6 14.6666C12.0028 14.6666 12.4015 14.5873 12.7736 14.4332C13.1457 14.279 13.4837 14.0531 13.7685 13.7684C14.0533 13.4836 14.2792 13.1455 14.4333 12.7735C14.5874 12.4014 14.6667 12.0026 14.6667 11.5999C14.6669 11.4302 14.6535 11.2608 14.6267 11.0933C14.5987 10.9277 14.5563 10.7648 14.5 10.6066Z" fill="white"/>
</svg>
