<svg width="21" height="21" viewBox="0 0 21 21" fill="none" xmlns="http://www.w3.org/2000/svg">
<path d="M11.37 0.094077C8.97724 -0.235068 6.54622 0.312629 4.5258 1.63604C2.50538 2.95944 1.03202 4.96918 0.377773 7.29414C-0.276473 9.61911 -0.0674181 12.1023 0.966337 14.2851C2.00009 16.468 3.78873 18.2031 6.00197 19.1701C5.94212 18.4019 5.99706 17.6291 6.16497 16.8771C6.34997 16.0381 7.46097 11.4141 7.46097 11.4141C7.23974 10.9182 7.12918 10.38 7.13697 9.83708C7.13697 8.35208 7.99397 7.24408 9.05997 7.24408C9.25148 7.24129 9.44134 7.27977 9.61665 7.35691C9.79195 7.43404 9.9486 7.54802 10.0759 7.6911C10.2032 7.83418 10.2983 8.00299 10.3545 8.18607C10.4108 8.36914 10.427 8.56219 10.402 8.75208C10.402 9.65208 9.82397 11.0141 9.52197 12.2921C9.46229 12.5265 9.4585 12.7716 9.51092 13.0077C9.56333 13.2438 9.67048 13.4643 9.82373 13.6514C9.97698 13.8385 10.172 13.987 10.3932 14.0849C10.6144 14.1828 10.8554 14.2274 11.097 14.2151C12.995 14.2151 14.267 11.7841 14.267 8.91408C14.267 6.71408 12.81 5.06608 10.124 5.06608C9.48135 5.04111 8.84035 5.147 8.23991 5.37733C7.63946 5.60766 7.09209 5.95762 6.63102 6.40597C6.16996 6.85431 5.80483 7.39168 5.5578 7.98545C5.31076 8.57922 5.18698 9.21701 5.19397 9.86008C5.16534 10.5734 5.39548 11.273 5.84197 11.8301C5.92541 11.8924 5.98633 11.9801 6.01555 12.08C6.04477 12.1799 6.04071 12.2867 6.00397 12.3841C5.95797 12.5681 5.84197 13.0071 5.79597 13.1681C5.7864 13.2227 5.76415 13.2743 5.731 13.3187C5.69784 13.3631 5.65472 13.3991 5.6051 13.4238C5.55549 13.4486 5.50076 13.4613 5.44533 13.461C5.3899 13.4607 5.33531 13.4473 5.28597 13.4221C3.90197 12.8681 3.24997 11.3451 3.24997 9.60608C3.24997 6.75908 5.63397 3.35108 10.404 3.35108C14.2 3.35108 16.724 6.12808 16.724 9.09808C16.724 13.0071 14.547 15.9461 11.33 15.9461C10.8492 15.9614 10.3722 15.8553 9.94331 15.6375C9.51437 15.4198 9.14728 15.0973 8.87597 14.7001C8.87597 14.7001 8.29797 17.0161 8.18397 17.4541C7.95127 18.2108 7.60788 18.9289 7.16497 19.5851C8.08797 19.8651 9.04697 20.0051 10.011 20.0011C11.3246 20.0021 12.6254 19.7441 13.8391 19.2417C15.0528 18.7392 16.1555 18.0024 17.084 17.0732C18.0126 16.144 18.7487 15.0408 19.2502 13.8268C19.7518 12.6127 20.0089 11.3117 20.007 9.99808C20.0057 7.58308 19.1308 5.25007 17.5436 3.42986C15.9564 1.60964 13.7643 0.425141 11.372 0.095077L11.37 0.094077Z" fill="#1DB954"/>
</svg>
