<svg width="121" height="129" viewBox="0 0 121 129" fill="none" xmlns="http://www.w3.org/2000/svg">
<rect x="9.27051" y="10.1172" width="101.89" height="109.075" rx="12" fill="#FF8436"/>
<rect opacity="0.3" x="0.297852" y="0.511719" width="119.835" height="128.285" rx="12" fill="#FF8436"/>
<path d="M52.8448 83.4671C52.5903 83.467 52.3462 83.3659 52.1662 83.1858L40.687 71.7066C40.5406 71.5603 40.4455 71.3706 40.4157 71.1658C40.386 70.961 40.4232 70.7521 40.5219 70.5702C40.9576 69.7668 41.3934 68.9721 41.8397 68.1975C44.5096 63.5001 47.601 59.0552 51.0759 54.9177C58.5585 45.8941 68.0851 38.7849 78.8651 34.1801C83.2057 32.2686 87.7938 30.9778 92.4944 30.3457C92.6344 30.333 92.7756 30.3513 92.9078 30.3992C93.04 30.4471 93.1601 30.5235 93.2595 30.6229C93.3589 30.7224 93.4353 30.8424 93.4832 30.9746C93.5311 31.1069 93.5494 31.248 93.5367 31.388C93.5099 31.6961 92.8015 39.0665 87.8931 48.9851C87.779 49.2114 87.5801 49.3834 87.3397 49.4635C87.0993 49.5437 86.8369 49.5255 86.6099 49.413C86.3828 49.3005 86.2095 49.1028 86.1276 48.8629C86.0458 48.6231 86.0622 48.3606 86.1731 48.1328C88.6855 43.1815 90.4653 37.8915 91.4568 32.4285C86.6396 33.2318 68.337 37.4127 52.5425 56.1558C49.1421 60.2066 46.1169 64.558 43.504 69.1564C43.1815 69.7169 42.8657 70.2851 42.5519 70.861L53.0138 81.3229C53.5896 81.0093 54.1566 80.6923 54.7145 80.3717C59.3118 77.7613 63.6628 74.7393 67.7141 71.3428C70.9435 68.6256 73.9437 65.6471 76.6845 62.4377C76.8499 62.2438 77.0857 62.1235 77.3398 62.1033C77.594 62.0832 77.8457 62.1648 78.0397 62.3302C78.2337 62.4957 78.354 62.7314 78.3741 62.9856C78.3943 63.2398 78.3127 63.4915 78.1472 63.6855C75.3382 66.9716 72.2638 70.0212 68.9552 72.8036C64.8158 76.2749 60.37 79.3634 55.6724 82.0312C54.9046 82.4756 54.106 82.9113 53.3017 83.3471C53.1618 83.4245 53.0047 83.4658 52.8448 83.4671Z" fill="white"/>
<path d="M81.9447 58.1372C81.7521 58.1375 81.564 58.0793 81.4053 57.9702C81.1951 57.8268 81.0504 57.6059 81.0031 57.3559C80.9558 57.1059 81.0096 56.8474 81.1528 56.6371C81.722 55.803 82.2624 54.9862 82.7739 54.1713C82.9094 53.9553 83.1251 53.802 83.3735 53.745C83.622 53.688 83.883 53.7321 84.099 53.8675C84.3149 54.003 84.4683 54.2186 84.5253 54.4671C84.5822 54.7156 84.5382 54.9766 84.4027 55.1926C83.8777 56.0276 83.3249 56.8636 82.7413 57.7188C82.6528 57.8483 82.534 57.9542 82.3951 58.0271C82.2562 58.1001 82.1015 58.1379 81.9447 58.1372Z" fill="white"/>
<path d="M52.3714 96.4761C52.2296 96.4761 52.0895 96.4447 51.9613 96.3841C51.8331 96.3235 51.7199 96.2352 51.6298 96.1256C51.5398 96.016 51.4752 95.8879 51.4406 95.7503C51.406 95.6128 51.4023 95.4693 51.4299 95.3301L54.2565 81.0175C54.3062 80.7682 54.4529 80.5487 54.6643 80.4074C54.8757 80.2661 55.1345 80.2144 55.3839 80.2638C55.6334 80.3131 55.853 80.4594 55.9947 80.6705C56.1364 80.8817 56.1885 81.1404 56.1396 81.3899L53.7977 93.2464L65.5294 84.4488C66.1792 83.9601 66.7034 83.3236 67.0584 82.592C67.4134 81.8605 67.5891 81.0549 67.5709 80.242L67.3789 72.0942C67.373 71.8398 67.4684 71.5934 67.644 71.4093C67.8197 71.2252 68.0613 71.1184 68.3157 71.1123C68.4424 71.1065 68.569 71.1264 68.6878 71.1708C68.8065 71.2153 68.9151 71.2833 69.0069 71.3708C69.0986 71.4584 69.1717 71.5636 69.2217 71.6802C69.2716 71.7968 69.2975 71.9223 69.2976 72.0491L69.4895 80.1969C69.515 81.3153 69.2736 82.4238 68.7852 83.4303C68.2968 84.4368 67.5755 85.3124 66.6812 85.9845L52.9473 96.2842C52.7812 96.4088 52.5791 96.4761 52.3714 96.4761Z" fill="white"/>
<path d="M28.3582 72.463C28.18 72.463 28.0053 72.4134 27.8536 72.3197C27.702 72.226 27.5795 72.0919 27.4998 71.9324C27.4201 71.773 27.3863 71.5945 27.4023 71.417C27.4183 71.2395 27.4835 71.0699 27.5904 70.9273L37.891 57.1935C38.5661 56.3026 39.4422 55.5839 40.4478 55.0961C41.4534 54.6082 42.5602 54.3649 43.6777 54.386L51.8264 54.578C52.081 54.584 52.3227 54.6908 52.4985 54.8751C52.6743 55.0593 52.7697 55.3058 52.7637 55.5604C52.7577 55.8149 52.6508 56.0567 52.4666 56.2324C52.2824 56.4082 52.0359 56.5036 51.7813 56.4976L43.6326 56.3056C42.8196 56.2856 42.0136 56.4604 41.2819 56.8154C40.5503 57.1704 39.9142 57.6952 39.4267 58.3462L30.6282 70.0769L42.4856 67.736C42.6094 67.7113 42.7368 67.7112 42.8605 67.7358C42.9843 67.7604 43.102 67.8092 43.2069 67.8793C43.3118 67.9494 43.4018 68.0395 43.4719 68.1445C43.5419 68.2495 43.5905 68.3672 43.615 68.491C43.6395 68.6148 43.6393 68.7422 43.6145 68.8659C43.5897 68.9896 43.5407 69.1073 43.4704 69.212C43.4001 69.3168 43.3098 69.4067 43.2048 69.4765C43.0997 69.5464 42.9818 69.5948 42.858 69.6191L28.5425 72.4448C28.4818 72.4568 28.4201 72.4629 28.3582 72.463Z" fill="white"/>
<path d="M89.2269 44.5295C88.9723 44.5294 88.7283 44.4283 88.5483 44.2482L79.6221 35.3221C79.5304 35.2335 79.4573 35.1276 79.407 35.0105C79.3567 34.8934 79.3302 34.7675 79.3291 34.64C79.328 34.5126 79.3523 34.3862 79.4006 34.2682C79.4488 34.1503 79.5201 34.0431 79.6102 33.953C79.7003 33.8629 79.8075 33.7916 79.9255 33.7433C80.0434 33.6951 80.1698 33.6708 80.2972 33.6719C80.4247 33.673 80.5506 33.6995 80.6677 33.7498C80.7848 33.8001 80.8907 33.8732 80.9793 33.9649L89.9055 42.8911C90.0397 43.0253 90.131 43.1963 90.1681 43.3825C90.2051 43.5686 90.1861 43.7616 90.1134 43.9369C90.0408 44.1123 89.9178 44.2622 89.76 44.3676C89.6022 44.4731 89.4167 44.5294 89.2269 44.5295Z" fill="white"/>
<path d="M76.218 54.1239C74.826 54.1229 73.4773 53.6393 72.4019 52.7556C71.3264 51.8718 70.5907 50.6424 70.32 49.277C70.0493 47.9115 70.2604 46.4945 70.9173 45.2672C71.5742 44.04 72.6364 43.0785 73.9227 42.5465C75.2091 42.0146 76.6401 41.9451 77.972 42.3499C79.3038 42.7547 80.4541 43.6088 81.2269 44.7667C81.9996 45.9245 82.347 47.3144 82.2099 48.6997C82.0727 50.0849 81.4595 51.3798 80.4747 52.3636C79.9161 52.9229 79.2525 53.3664 78.522 53.6684C77.7915 53.9705 77.0085 54.1253 76.218 54.1239ZM76.218 44.0085C75.2698 44.0092 74.3513 44.3387 73.6188 44.9407C72.8863 45.5428 72.3853 46.3801 72.201 47.3102C72.0167 48.2402 72.1605 49.2054 72.6081 50.0413C73.0556 50.8772 73.7791 51.532 74.6553 51.8943C75.5315 52.2565 76.5062 52.3038 77.4133 52.028C78.3205 51.7522 79.1039 51.1704 79.6302 50.3817C80.1565 49.5931 80.393 48.6463 80.2996 47.7028C80.2061 46.7593 79.7884 45.8774 79.1176 45.2073C78.737 44.8263 78.285 44.5243 77.7874 44.3186C77.2898 44.1129 76.7564 44.0075 76.218 44.0085Z" fill="white"/>
<path d="M28.159 97.5239C28.003 97.5248 27.8492 97.4876 27.7108 97.4157C27.5724 97.3437 27.4537 97.2391 27.3648 97.111C27.276 96.9828 27.2197 96.8349 27.2009 96.6801C27.182 96.5253 27.2012 96.3682 27.2567 96.2224C27.7597 94.8989 32.2295 83.2248 34.4927 80.9616C35.7224 79.7354 37.3882 79.0469 39.1247 79.0469C40.8613 79.0469 42.527 79.7354 43.7567 80.9616C44.9831 82.191 45.6717 83.8566 45.6717 85.5931C45.6717 87.3296 44.9831 88.9952 43.7567 90.2246C41.4926 92.4888 29.8185 96.9586 28.4958 97.4606C28.3883 97.5017 28.2741 97.5232 28.159 97.5239ZM39.1247 80.9616C38.5166 80.9607 37.9143 81.0799 37.3523 81.3123C36.7904 81.5447 36.2798 81.8857 35.8499 82.3158C34.5426 83.6231 31.7861 89.9415 29.8348 94.8797C34.7739 92.9284 41.0923 90.1718 42.3996 88.8646C43.2663 87.9952 43.7529 86.8178 43.7529 85.5902C43.7529 84.3627 43.2663 83.1852 42.3996 82.3158C41.9697 81.8857 41.4591 81.5447 40.8971 81.3123C40.3352 81.0799 39.7328 80.9607 39.1247 80.9616Z" fill="white"/>
</svg>
