<svg width="121" height="129" viewBox="0 0 121 129" fill="none" xmlns="http://www.w3.org/2000/svg">
<rect x="9.24805" y="9.60742" width="101.89" height="109.075" rx="12" fill="#EF4B4C"/>
<rect opacity="0.3" x="0.275391" width="119.835" height="128.285" rx="12" fill="#EF4B4C"/>
<g clip-path="url(#clip0_1562_5)">
<path d="M92.5786 28H78.7432C78.1674 28 77.7007 28.4667 77.7007 29.0425C77.7007 29.6183 78.1674 30.085 78.7432 30.085H92.5786C93.1535 30.085 93.6211 30.5526 93.6211 31.1275V52.1096C93.6211 52.6844 93.1535 53.1521 92.5786 53.1521H63.8953V52.6509C63.8953 50.6172 62.2409 48.9629 60.2073 48.9629C58.1738 48.9629 56.5194 50.6173 56.5194 52.6509V53.1521H45.9004C45.3247 53.1521 44.8579 53.6187 44.8579 54.1946C44.8579 54.7704 45.3247 55.2371 45.9004 55.2371H56.5194V73.6083L54.0434 70.8333C52.5149 69.1203 50.3217 68.1379 48.0262 68.1379C47.1707 68.1379 46.399 68.577 45.9619 69.3125C45.5247 70.048 45.5081 70.9358 45.9171 71.6872L50.0687 79.314C51.0979 81.2047 52.4106 82.9161 53.9704 84.4003L58.3948 88.6101V90.8432C57.3126 91.0681 56.4971 92.0287 56.4971 93.1766V96.6423C56.4971 97.9566 57.5662 99.0257 58.8805 99.0257H75.3172C76.6314 99.0257 77.7007 97.9566 77.7007 96.6423V93.1766C77.7007 92.0536 76.919 91.1119 75.8718 90.861V88.5436C76.8219 87.3451 79.768 82.9465 79.768 74.4968V68.1294C79.768 66.0959 78.1136 64.4417 76.08 64.4417C75.4004 64.4417 74.7631 64.6264 74.2157 64.9484C73.6724 63.588 72.3412 62.6241 70.789 62.6241C70.1094 62.6241 69.4723 62.8089 68.9249 63.1309C68.3815 61.7704 67.0504 60.8066 65.4982 60.8066C64.924 60.8066 64.3801 60.9384 63.8951 61.1735V55.2373H92.5785C94.3029 55.2373 95.7058 53.8343 95.7058 52.11V31.1273C95.706 29.4029 94.3031 28 92.5786 28V28ZM65.4983 62.891C66.3823 62.891 67.1014 63.6102 67.1014 64.4941V66.3118C67.1014 66.8876 67.5681 67.3543 68.1439 67.3543C68.7197 67.3543 69.1864 66.8876 69.1864 66.3118C69.1864 65.4278 69.9055 64.7087 70.7895 64.7087C71.6733 64.7087 72.3924 65.4278 72.3924 66.3118V68.1293C72.3924 68.7051 72.859 69.1718 73.4349 69.1718C74.0107 69.1718 74.4774 68.7051 74.4774 68.1293C74.4774 67.2454 75.1965 66.5264 76.0804 66.5264C76.9644 66.5264 77.6835 67.2454 77.6835 68.1293V74.4966C77.6835 83.4528 74.1057 87.4108 74.0733 87.4458C73.8896 87.6393 73.7872 87.8961 73.7872 88.163V90.793H71.2687C70.6929 90.793 70.2262 91.2597 70.2262 91.8355C70.2262 92.4113 70.6929 92.878 71.2687 92.878H75.3173C75.482 92.878 75.616 93.012 75.616 93.1766V96.6423C75.616 96.807 75.482 96.9409 75.3173 96.9409H58.8805C58.7158 96.9409 58.5819 96.807 58.5819 96.6423V93.1766C58.5819 93.012 58.7158 92.878 58.8805 92.878H67.0989C67.6747 92.878 68.1414 92.4113 68.1414 91.8355C68.1414 91.2597 67.6747 90.793 67.0989 90.793H60.4798V88.163C60.4798 87.8775 60.3627 87.6046 60.1559 87.4078L55.4076 82.8897C54.0052 81.5554 52.8251 80.0169 51.8998 78.317L47.7482 70.6903C47.6501 70.4272 47.748 70.2623 48.026 70.2226C49.7282 70.2226 51.3543 70.9509 52.4875 72.2211L56.7441 76.9917C57.3481 77.7022 58.6331 77.249 58.604 76.2977V52.6509C58.604 51.7669 59.3231 51.0478 60.2071 51.0478C61.0909 51.0478 61.81 51.7669 61.81 52.6509V64.4941C61.81 65.0699 62.2767 65.5366 62.8525 65.5366C63.4283 65.5366 63.895 65.0699 63.895 64.4941C63.8953 63.6102 64.6144 62.891 65.4983 62.891Z" fill="white"/>
<path d="M41.7308 53.1519H27.808C27.2331 53.1519 26.7655 52.6843 26.7655 52.1094V31.1273C26.7655 30.5525 27.2331 30.0849 27.808 30.0849H74.5736C75.1495 30.0849 75.6161 29.6182 75.6161 29.0424C75.6161 28.4665 75.1495 28 74.5736 28H27.808C26.0836 28 24.6807 29.4029 24.6807 31.1273V52.1094C24.6807 53.8337 26.0836 55.2368 27.808 55.2368H41.7308C42.3065 55.2368 42.7733 54.7701 42.7733 54.1943C42.7733 53.6185 42.3067 53.1519 41.7308 53.1519Z" fill="white"/>
<path d="M67.0537 40.8348C67.6661 40.2378 67.8826 39.3617 67.6181 38.5482C67.3539 37.7348 66.6637 37.153 65.8173 37.0299L63.39 36.6773C63.3425 36.6703 63.3013 36.6405 63.2799 36.5974L62.1943 34.3978C61.8158 33.6308 61.0494 33.1543 60.1939 33.1543C59.3385 33.1543 58.572 33.6307 58.1934 34.3978L57.1078 36.5975C57.0864 36.6405 57.0453 36.6705 56.998 36.6773L54.5703 37.0299C53.7238 37.153 53.0338 37.7348 52.7695 38.5482C52.5052 39.3617 52.7215 40.2378 53.334 40.8348L55.0906 42.5471C55.125 42.5807 55.1407 42.6289 55.1325 42.6763L54.7179 45.0939C54.5733 45.9368 54.9133 46.7729 55.6053 47.2756C56.2972 47.7785 57.1975 47.8435 57.9547 47.4456L60.1259 46.304C60.1684 46.2815 60.2191 46.2815 60.2616 46.304L62.433 47.4456C62.7623 47.6185 63.1186 47.7041 63.4731 47.7041C63.9337 47.7041 64.3913 47.5597 64.7824 47.2756C65.4742 46.7729 65.8142 45.9368 65.6695 45.0939L65.255 42.6763C65.2468 42.629 65.2625 42.5807 65.2969 42.5471L67.0537 40.8348ZM63.8417 41.0544C63.3158 41.5669 63.076 42.3051 63.2003 43.0288L63.6149 45.4467C63.6189 45.4711 63.6302 45.536 63.5568 45.5892C63.4837 45.6424 63.4249 45.6117 63.4031 45.6003L61.232 44.4589C60.9068 44.2878 60.5504 44.2025 60.1938 44.2025C59.8372 44.2025 59.4807 44.288 59.1557 44.4587L56.9846 45.6003C56.9627 45.6117 56.9043 45.6427 56.8307 45.5892C56.7573 45.5359 56.7684 45.471 56.7727 45.4466L57.1874 43.0288C57.3115 42.3049 57.0717 41.5668 56.5458 41.0544L54.7893 39.3421C54.7715 39.3248 54.7244 39.2787 54.7523 39.1926C54.7803 39.1063 54.8456 39.0967 54.87 39.0933L57.2978 38.7406C58.0246 38.6349 58.6523 38.1785 58.9772 37.5203L60.0628 35.3207C60.0738 35.2984 60.1029 35.2394 60.1936 35.2394C60.2843 35.2394 60.3133 35.2985 60.3244 35.3207L61.4101 37.5201C61.7348 38.1787 62.3628 38.6349 63.0899 38.7408L65.5172 39.0934C65.5418 39.097 65.6071 39.1064 65.635 39.1927C65.663 39.2789 65.6158 39.3249 65.5981 39.3423L63.8417 41.0544Z" fill="white"/>
<path d="M44.884 45.0939L44.4694 42.6763C44.4612 42.629 44.4769 42.5807 44.5114 42.5471L46.2679 40.8348C46.8804 40.2378 47.0966 39.3617 46.8324 38.5482C46.5681 37.7348 45.8781 37.153 45.0315 37.0299L42.6041 36.6773C42.5565 36.6703 42.5155 36.6405 42.4941 36.5974L41.4085 34.3978C41.0299 33.6308 40.2635 33.1543 39.4081 33.1543C38.5528 33.1543 37.7862 33.6307 37.4076 34.3978L36.3221 36.5974C36.3007 36.6405 36.2595 36.6703 36.2122 36.6773L33.7846 37.0299C32.9381 37.153 32.2481 37.7348 31.9839 38.5482C31.7196 39.3617 31.9359 40.2378 32.5483 40.8348L34.305 42.5471C34.3394 42.5807 34.355 42.6289 34.3469 42.6763L33.9322 45.0939C33.7877 45.937 34.1277 46.773 34.8196 47.2756C35.5117 47.7786 36.4119 47.8434 37.169 47.4456L39.3403 46.304C39.3827 46.2817 39.4335 46.2817 39.4761 46.304L41.6475 47.4456C41.9768 47.6185 42.3331 47.7041 42.6876 47.7041C43.1482 47.7041 43.6058 47.5597 43.9969 47.2756C44.6886 46.7729 45.0286 45.9368 44.884 45.0939ZM43.0562 41.0541C42.5302 41.5667 42.2903 42.3048 42.4145 43.0287L42.8291 45.4464C42.8333 45.4708 42.8445 45.5358 42.7712 45.589C42.6979 45.6426 42.6394 45.6115 42.6174 45.6001L40.4462 44.4586C40.1211 44.2877 39.7646 44.2024 39.4081 44.2024C39.0516 44.2024 38.6949 44.2878 38.3701 44.4586L36.1989 45.6001C36.177 45.6115 36.1186 45.6424 36.0452 45.589C35.9718 45.5359 35.9829 45.4708 35.9872 45.4464L36.4019 43.0287C36.526 42.3048 36.2862 41.5667 35.7603 41.0542L34.0038 39.3418C33.986 39.3245 33.9389 39.2784 33.9668 39.1923C33.9948 39.106 34.0601 39.0964 34.0845 39.093L36.5123 38.7403C37.2389 38.6346 37.8668 38.1784 38.1918 37.52L39.2774 35.3204C39.2884 35.2981 39.3175 35.2391 39.4083 35.2391C39.499 35.2391 39.5281 35.2982 39.5391 35.3204L40.6247 37.5199C40.9496 38.1784 41.5773 38.6346 42.3044 38.7405L44.7318 39.0931C44.7564 39.0967 44.8216 39.1062 44.8496 39.1924C44.8776 39.2786 44.8305 39.3246 44.8127 39.342L43.0562 41.0541Z" fill="white"/>
<path d="M87.8393 40.8348C88.4518 40.2378 88.6682 39.3617 88.4038 38.5482C88.1395 37.7348 87.4494 37.153 86.6029 37.0299L84.1757 36.6773C84.128 36.6703 84.0869 36.6405 84.0655 36.5974L82.9799 34.3978C82.6013 33.6308 81.8349 33.1543 80.9795 33.1543C80.1242 33.1543 79.3576 33.6307 78.979 34.3978L77.8935 36.5972C77.872 36.6404 77.831 36.6703 77.7835 36.6773L75.3559 37.0299C74.5093 37.153 73.8194 37.7348 73.5551 38.5484C73.2909 39.3618 73.5073 40.238 74.1196 40.8348L75.8762 42.5472C75.9105 42.5807 75.9263 42.6289 75.918 42.6763L75.5036 45.0939C75.3589 45.937 75.6989 46.773 76.3909 47.2758C77.0825 47.7786 77.9829 47.8437 78.7401 47.4457L80.9114 46.3042C80.9537 46.282 81.0048 46.2817 81.0471 46.3042L83.2185 47.4457C83.5478 47.6187 83.9041 47.7043 84.2586 47.7043C84.7192 47.7043 85.1768 47.5599 85.5679 47.2758C86.2597 46.773 86.5997 45.937 86.455 45.0941L86.0405 42.6764C86.0323 42.6291 86.048 42.5809 86.0824 42.5473L87.8393 40.8348ZM84.6274 41.0544C84.1015 41.5669 83.8616 42.3051 83.9859 43.0288L84.4005 45.4467C84.4046 45.4711 84.4158 45.5361 84.3424 45.5892C84.2693 45.6425 84.2105 45.6117 84.1887 45.6003L82.0176 44.4589C81.6926 44.2878 81.336 44.2025 80.9795 44.2025C80.623 44.2025 80.2664 44.288 79.9413 44.4587L77.7701 45.6003C77.7484 45.6117 77.6899 45.6426 77.6165 45.5892C77.5432 45.5361 77.5543 45.4711 77.5585 45.4466L77.9729 43.0292C78.0972 42.3054 77.8574 41.5671 77.3316 41.0544L75.5751 39.3418C75.5574 39.3246 75.5101 39.2786 75.5382 39.1924C75.5663 39.1062 75.6315 39.0966 75.6559 39.0931L78.0837 38.7405C78.8102 38.6348 79.4379 38.1785 79.7632 37.5201L80.8488 35.3206C80.8598 35.2982 80.8891 35.2393 80.9797 35.2393C81.0702 35.2393 81.0994 35.2984 81.1103 35.3206L82.196 37.52C82.5207 38.1785 83.1487 38.6348 83.8758 38.7406L86.3031 39.0933C86.3277 39.0969 86.393 39.1063 86.4209 39.1926C86.449 39.2787 86.4017 39.3248 86.384 39.3421L84.6274 41.0544Z" fill="white"/>
</g>
<defs>
<clipPath id="clip0_1562_5">
<rect width="71.0256" height="71.0256" fill="white" transform="translate(24.6807 28)"/>
</clipPath>
</defs>
</svg>
