<svg width="121" height="129" viewBox="0 0 121 129" fill="none" xmlns="http://www.w3.org/2000/svg">
<rect x="9.24805" y="10.1172" width="101.89" height="109.075" rx="12" fill="#55A3FF"/>
<rect opacity="0.3" x="0.275391" y="0.511719" width="119.835" height="128.285" rx="12" fill="#55A3FF"/>
<g clip-path="url(#clip0_1562_7)">
<path d="M34.6686 34.8328C35.2432 34.8328 35.709 34.3671 35.709 33.7924C35.709 33.2176 35.2432 32.752 34.6686 32.752H30.2059C29.6314 32.752 29.1655 33.2176 29.1655 33.7924V71.9076C29.1655 72.4823 29.6314 72.948 30.2059 72.948H90.1809C90.7557 72.948 91.2213 72.4823 91.2213 71.9076V33.7924C91.2213 33.2176 90.7557 32.752 90.1809 32.752H39.5239C38.9493 32.752 38.4835 33.2176 38.4835 33.7924C38.4835 34.3671 38.9493 34.8328 39.5239 34.8328H89.1405V70.8672H31.2464V34.8328H34.6686Z" fill="white"/>
<path d="M95.7062 76.3916V29.308C95.7062 28.7333 95.2405 28.2676 94.6658 28.2676H25.7211C25.1465 28.2676 24.6807 28.7333 24.6807 29.308V76.3916C24.6807 76.9663 25.1465 77.432 25.7211 77.432H29.8336C28.8949 78.5031 28.3241 79.9041 28.3241 81.4369C28.3241 82.9759 28.8995 84.3821 29.8449 85.4548C26.9661 85.6417 24.6807 88.0413 24.6807 90.9657V98.2527C24.6807 98.8275 25.1465 99.2932 25.7211 99.2932H35.709C36.2836 99.2932 36.7495 98.8275 36.7495 98.2527C36.7495 97.678 36.2836 97.2123 35.709 97.2123H26.7615V90.9657C26.7615 89.0671 28.3067 87.5227 30.206 87.5227H38.6125C40.5117 87.5227 42.057 89.0673 42.057 90.9657V97.2123H40.5643C39.9897 97.2123 39.5239 97.678 39.5239 98.2527C39.5239 98.8275 39.9897 99.2932 40.5643 99.2932H43.0974C43.672 99.2932 44.1378 98.8275 44.1378 98.2527V90.9657C44.1378 88.0413 41.8523 85.6417 38.9736 85.455C39.9191 84.3822 40.4944 82.9759 40.4944 81.437C40.4944 79.9043 39.9236 78.5032 38.9848 77.4321H55.6179C54.6791 78.5032 54.1083 79.9043 54.1083 81.437C54.1083 82.9757 54.6834 84.3818 55.6287 85.4545C52.7502 85.6413 50.4649 88.0411 50.4649 90.9661V98.2527C50.4649 98.8275 50.9307 99.2932 51.5053 99.2932H68.8816C69.4563 99.2932 69.922 98.8275 69.922 98.2527V90.966C69.922 88.041 67.6368 85.6411 64.7582 85.4544C65.7035 84.3817 66.2786 82.9756 66.2786 81.4369C66.2786 79.9041 65.7078 78.5031 64.7691 77.432H71.9383C72.5131 77.432 72.9787 76.9663 72.9787 76.3916C72.9787 75.8168 72.5131 75.3512 71.9383 75.3512H26.7615V30.3484H93.6254V75.3512H76.7936C76.2189 75.3512 75.7532 75.8168 75.7532 76.3916C75.7532 76.9663 76.2189 77.432 76.7936 77.432H81.4021C80.4633 78.5031 79.8925 79.9041 79.8925 81.4369C79.8925 82.9756 80.4676 84.3817 81.4129 85.4544C78.5343 85.6411 76.2491 88.041 76.2491 90.966V98.2527C76.2491 98.8275 76.7148 99.2932 77.2895 99.2932H94.6658C95.2405 99.2932 95.7062 98.8275 95.7062 98.2527V90.966C95.7062 88.041 93.4211 85.6411 90.5425 85.4544C91.4876 84.3817 92.0627 82.9756 92.0627 81.437C92.0627 79.9043 91.4919 78.5032 90.5531 77.4321H94.6658C95.2405 77.432 95.7062 76.9663 95.7062 76.3916ZM34.4092 85.4412C32.2012 85.4412 30.4049 83.6449 30.4049 81.4369C30.4049 79.229 32.2012 77.4327 34.4092 77.4327C36.6173 77.4327 38.4136 79.229 38.4136 81.4369C38.4136 83.6449 36.6173 85.4412 34.4092 85.4412ZM60.1935 85.4412C57.9854 85.4412 56.1891 83.6449 56.1891 81.4369C56.1891 79.229 57.9854 77.4327 60.1935 77.4327C62.4015 77.4327 64.1978 79.229 64.1978 81.4369C64.1978 83.6449 62.4015 85.4412 60.1935 85.4412ZM67.8412 90.966V97.2123H52.5457V90.966C52.5457 89.0671 54.0907 87.5222 55.9895 87.5222H64.3973C66.2962 87.522 67.8412 89.067 67.8412 90.966ZM85.9777 85.4412C83.7696 85.4412 81.9733 83.6449 81.9733 81.4369C81.9733 79.229 83.7696 77.4327 85.9777 77.4327C88.1856 77.4327 89.9819 79.229 89.9819 81.4369C89.9819 83.6449 88.1856 85.4412 85.9777 85.4412ZM93.6254 90.966V97.2123H78.3299V90.966C78.3299 89.0671 79.8749 87.5222 81.7737 87.5222H90.1815C92.0805 87.522 93.6254 89.067 93.6254 90.966Z" fill="white"/>
<path d="M56.0335 62.0744C56.568 62.0744 57.1031 61.9385 57.5939 61.666L68.4106 55.6567C69.4447 55.082 70.0622 54.0327 70.0622 52.8497C70.0622 51.6667 69.4447 50.6172 68.4106 50.0427L57.5939 44.0336C56.5887 43.4751 55.3971 43.49 54.4059 44.0729C53.4149 44.6561 52.8232 45.6907 52.8232 46.8405V58.8591C52.8232 60.0088 53.4149 61.0434 54.4059 61.6266C54.9131 61.9249 55.473 62.0744 56.0335 62.0744ZM54.9041 46.8404C54.9041 46.2569 55.2937 45.9648 55.4612 45.8663C55.5647 45.8054 55.774 45.7063 56.0391 45.7063C56.2031 45.7063 56.3885 45.7441 56.5833 45.8526L67.3999 51.8617C67.9246 52.1532 67.9812 52.6498 67.9812 52.8497C67.9812 53.0496 67.9246 53.5462 67.3999 53.8378L56.5833 59.847C56.0734 60.1302 55.6286 59.9316 55.461 59.8329C55.2935 59.7345 54.9039 59.4423 54.9039 58.859V46.8404H54.9041Z" fill="white"/>
</g>
<defs>
<clipPath id="clip0_1562_7">
<rect width="71.0256" height="71.0256" fill="white" transform="translate(24.6807 28.2676)"/>
</clipPath>
</defs>
</svg>
