<svg width="120" height="129" viewBox="0 0 120 129" fill="none" xmlns="http://www.w3.org/2000/svg">
<rect x="8.97266" y="9.60742" width="101.89" height="109.075" rx="12" fill="#1DB954"/>
<rect opacity="0.3" width="119.835" height="128.285" rx="12" fill="#1DB954"/>
<g clip-path="url(#clip0_1562_4)">
<path d="M88.7807 59.2378C91.0973 57.61 92.6312 54.9021 92.6312 51.8499C92.6312 46.8568 88.5929 42.8185 83.5998 42.8185C78.6067 42.8185 74.5684 46.8568 74.5684 51.8499C74.5684 54.9021 76.0866 57.61 78.4188 59.2378C76.431 59.9265 74.6153 60.9909 73.0814 62.3683C70.9683 60.5683 68.4796 59.1909 65.7561 58.377C69.0587 56.3735 71.2814 52.7265 71.2814 48.5786C71.2814 42.255 66.1631 37.1367 59.8395 37.1367C53.5159 37.1367 48.3976 42.2707 48.3976 48.5786C48.3976 52.7265 50.6046 56.3735 53.9229 58.377C51.2307 59.1909 48.7733 60.5526 46.6759 62.3214C45.1419 60.9753 43.3576 59.9266 41.401 59.2535C43.7176 57.6257 45.2515 54.9178 45.2515 51.8656C45.2515 46.8725 41.2132 42.8342 36.2201 42.8342C31.227 42.8342 27.1887 46.8725 27.1887 51.8656C27.1887 54.9178 28.707 57.6257 31.0392 59.2535C24.8252 61.3979 20.3643 67.2988 20.3643 74.2328V75.2659C20.3643 75.2972 20.3956 75.3285 20.4269 75.3285H39.5697C39.4601 76.1894 39.3975 77.0815 39.3975 77.9737V79.0381C39.3975 83.6399 43.1228 87.3651 47.7246 87.3651H71.9857C76.5875 87.3651 80.3128 83.6399 80.3128 79.0381V77.9737C80.3128 77.0815 80.2502 76.1894 80.1406 75.3285H99.4087C99.44 75.3285 99.4713 75.2972 99.4713 75.2659V74.2328C99.44 67.2832 94.9947 61.3822 88.7807 59.2378ZM77.0727 51.8343C77.0727 48.2342 79.9997 45.3072 83.5998 45.3072C87.1998 45.3072 90.1268 48.2342 90.1268 51.8343C90.1268 55.3874 87.2624 58.2831 83.725 58.3613C83.678 58.3613 83.6467 58.3613 83.5998 58.3613C83.5528 58.3613 83.5215 58.3613 83.4746 58.3613C79.9215 58.2987 77.0727 55.403 77.0727 51.8343ZM50.8707 48.5786C50.8707 43.6481 54.8777 39.6411 59.8082 39.6411C64.7387 39.6411 68.7457 43.6481 68.7457 48.5786C68.7457 53.3369 65.0048 57.2343 60.3247 57.5004C60.1525 57.5004 59.9804 57.5004 59.8082 57.5004C59.636 57.5004 59.4638 57.5004 59.2917 57.5004C54.6116 57.2343 50.8707 53.3369 50.8707 48.5786ZM29.6461 51.8343C29.6461 48.2342 32.5731 45.3072 36.1731 45.3072C39.7732 45.3072 42.7002 48.2342 42.7002 51.8343C42.7002 55.3874 39.8358 58.2831 36.2984 58.3613C36.2514 58.3613 36.2201 58.3613 36.1731 58.3613C36.1262 58.3613 36.0949 58.3613 36.0479 58.3613C32.5105 58.2987 29.6461 55.403 29.6461 51.8343ZM40.008 72.8084H22.8999C23.6043 66.1405 29.2391 60.9126 36.0792 60.8657C36.1105 60.8657 36.1418 60.8657 36.1731 60.8657C36.2044 60.8657 36.2357 60.8657 36.2671 60.8657C39.5227 60.8813 42.4967 62.0866 44.7976 64.0431C42.5436 66.4849 40.8688 69.4901 40.008 72.8084ZM77.7771 79.0381C77.7771 82.2468 75.1632 84.8608 71.9544 84.8608H47.6933C44.4845 84.8608 41.8706 82.2468 41.8706 79.0381V77.9737C41.8706 68.2536 49.6342 60.3022 59.2917 60.0205C59.4638 60.0361 59.6517 60.0361 59.8238 60.0361C59.996 60.0361 60.1838 60.0361 60.356 60.0205C70.0135 60.3022 77.7771 68.2536 77.7771 77.9737V79.0381ZM79.6397 72.8084C78.7789 69.5058 77.1353 66.5475 74.8971 64.1057C77.2136 62.1022 80.2189 60.897 83.5059 60.8657C83.5372 60.8657 83.5685 60.8657 83.5998 60.8657C83.6311 60.8657 83.6624 60.8657 83.6937 60.8657C90.5338 60.9126 96.1686 66.1405 96.873 72.8084H79.6397Z" fill="white"/>
</g>
<defs>
<clipPath id="clip0_1562_4">
<rect width="79.107" height="56.3662" fill="white" transform="translate(20.3643 35.3301)"/>
</clipPath>
</defs>
</svg>
