<svg width="32" height="28" viewBox="0 0 32 28" fill="none" xmlns="http://www.w3.org/2000/svg">
<path d="M2.91821 27.2871C2.16546 27.2871 1.61799 27.0457 1.27583 26.563C1.0021 26.0802 0.865234 25.494 0.865234 24.8044V8.97676C0.865234 6.49401 1.4127 4.63194 2.50762 3.39056C3.60254 2.14918 4.90276 1.32159 6.40828 0.907802C7.98223 0.494006 9.41932 0.287109 10.7195 0.287109C11.6776 0.287109 12.3961 0.321591 12.8752 0.390556C13.4226 0.390556 13.8674 0.459522 14.2096 0.597456V6.18366C12.9094 6.18366 12.0882 6.52849 11.746 7.21815C11.4723 7.83884 11.3354 8.45952 11.3354 9.08021V12.0802H12.3619C12.9778 12.0802 13.4911 12.2871 13.9017 12.7009C14.3807 13.0457 14.6202 13.6319 14.6202 14.4595V24.8044C14.6202 26.4595 13.8674 27.2871 12.3619 27.2871H2.91821ZM20.1632 27.2871C19.4105 27.2871 18.863 27.0457 18.5209 26.563C18.2471 26.0802 18.1103 25.494 18.1103 24.8044V8.97676C18.1103 6.49401 18.6577 4.63194 19.7526 3.39056C20.8476 2.14918 22.1478 1.32159 23.6533 0.907802C25.2273 0.494006 26.6643 0.287109 27.9646 0.287109C28.9226 0.287109 29.6412 0.321591 30.1202 0.390556C30.6677 0.390556 31.1125 0.459522 31.4546 0.597456V6.18366C30.1544 6.18366 29.3332 6.52849 28.9911 7.21815C28.7173 7.83884 28.5805 8.45952 28.5805 9.08021V12.0802H29.607C30.2228 12.0802 30.7361 12.2871 31.1467 12.7009C31.6257 13.0457 31.8652 13.6319 31.8652 14.4595V24.8044C31.8652 26.4595 31.1125 27.2871 29.607 27.2871H20.1632Z" fill="white"/>
</svg>
