<svg width="109" height="14" viewBox="0 0 109 14" fill="none" xmlns="http://www.w3.org/2000/svg">
<path d="M9.40827 11.5434H4.69227L3.93627 13.7754H0.71427L5.28627 1.13939H8.85027L13.4223 13.7754H10.1643L9.40827 11.5434ZM8.61627 9.16739L7.05027 4.54139L5.50227 9.16739H8.61627ZM20.9338 3.62339C22.1098 3.62339 23.0458 4.00739 23.7418 4.77539C24.4498 5.53139 24.8038 6.57539 24.8038 7.90739V13.7754H21.7438V8.32139C21.7438 7.64939 21.5698 7.12739 21.2218 6.75539C20.8738 6.38339 20.4058 6.19739 19.8178 6.19739C19.2298 6.19739 18.7618 6.38339 18.4138 6.75539C18.0658 7.12739 17.8918 7.64939 17.8918 8.32139V13.7754H14.8138V3.73139H17.8918V5.06339C18.2038 4.61939 18.6238 4.27139 19.1518 4.01939C19.6798 3.75539 20.2738 3.62339 20.9338 3.62339ZM26.3307 8.73539C26.3307 7.70339 26.5227 6.79739 26.9067 6.01739C27.3027 5.23739 27.8367 4.63739 28.5087 4.21739C29.1807 3.79739 29.9307 3.58739 30.7587 3.58739C31.4187 3.58739 32.0187 3.72539 32.5587 4.00139C33.1107 4.27739 33.5427 4.64939 33.8547 5.11739V0.45539H36.9327V13.7754H33.8547V12.3354C33.5667 12.8154 33.1527 13.1994 32.6127 13.4874C32.0847 13.7754 31.4667 13.9194 30.7587 13.9194C29.9307 13.9194 29.1807 13.7094 28.5087 13.2894C27.8367 12.8574 27.3027 12.2514 26.9067 11.4714C26.5227 10.6794 26.3307 9.76739 26.3307 8.73539ZM33.8547 8.75339C33.8547 7.98539 33.6387 7.37939 33.2067 6.93539C32.7867 6.49139 32.2707 6.26939 31.6587 6.26939C31.0467 6.26939 30.5247 6.49139 30.0927 6.93539C29.6727 7.36739 29.4627 7.96739 29.4627 8.73539C29.4627 9.50339 29.6727 10.1154 30.0927 10.5714C30.5247 11.0154 31.0467 11.2374 31.6587 11.2374C32.2707 11.2374 32.7867 11.0154 33.2067 10.5714C33.6387 10.1274 33.8547 9.52139 33.8547 8.75339ZM57.2839 1.13939V13.7754H54.2059V6.19739L51.3799 13.7754H48.8959L46.0519 6.17939V13.7754H42.9739V1.13939H46.6099L50.1559 9.88739L53.6659 1.13939H57.2839ZM64.0693 13.9194C63.0853 13.9194 62.1973 13.7094 61.4053 13.2894C60.6253 12.8694 60.0073 12.2694 59.5513 11.4894C59.1073 10.7094 58.8853 9.79739 58.8853 8.75339C58.8853 7.72139 59.1133 6.81539 59.5693 6.03539C60.0253 5.24339 60.6493 4.63739 61.4413 4.21739C62.2333 3.79739 63.1213 3.58739 64.1053 3.58739C65.0893 3.58739 65.9773 3.79739 66.7693 4.21739C67.5613 4.63739 68.1853 5.24339 68.6413 6.03539C69.0973 6.81539 69.3253 7.72139 69.3253 8.75339C69.3253 9.78539 69.0913 10.6974 68.6233 11.4894C68.1673 12.2694 67.5373 12.8694 66.7333 13.2894C65.9413 13.7094 65.0533 13.9194 64.0693 13.9194ZM64.0693 11.2554C64.6573 11.2554 65.1553 11.0394 65.5633 10.6074C65.9833 10.1754 66.1933 9.55739 66.1933 8.75339C66.1933 7.94939 65.9893 7.33139 65.5813 6.89939C65.1853 6.46739 64.6933 6.25139 64.1053 6.25139C63.5053 6.25139 63.0073 6.46739 62.6113 6.89939C62.2153 7.31939 62.0173 7.93739 62.0173 8.75339C62.0173 9.55739 62.2093 10.1754 62.5933 10.6074C62.9893 11.0394 63.4813 11.2554 64.0693 11.2554ZM74.0363 5.40539C74.3963 4.85339 74.8463 4.42139 75.3863 4.10939C75.9263 3.78539 76.5263 3.62339 77.1863 3.62339V6.88139H76.3403C75.5723 6.88139 74.9963 7.04939 74.6123 7.38539C74.2283 7.70939 74.0363 8.28539 74.0363 9.11339V13.7754H70.9583V3.73139H74.0363V5.40539ZM88.1255 8.59139C88.1255 8.87939 88.1075 9.17939 88.0715 9.49139H81.1055C81.1535 10.1154 81.3515 10.5954 81.6995 10.9314C82.0595 11.2554 82.4975 11.4174 83.0135 11.4174C83.7815 11.4174 84.3155 11.0934 84.6155 10.4454H87.8915C87.7235 11.1054 87.4175 11.6994 86.9735 12.2274C86.5415 12.7554 85.9955 13.1694 85.3355 13.4694C84.6755 13.7694 83.9375 13.9194 83.1215 13.9194C82.1375 13.9194 81.2615 13.7094 80.4935 13.2894C79.7255 12.8694 79.1255 12.2694 78.6935 11.4894C78.2615 10.7094 78.0455 9.79739 78.0455 8.75339C78.0455 7.70939 78.2555 6.79739 78.6755 6.01739C79.1075 5.23739 79.7075 4.63739 80.4755 4.21739C81.2435 3.79739 82.1255 3.58739 83.1215 3.58739C84.0935 3.58739 84.9575 3.79139 85.7135 4.19939C86.4695 4.60739 87.0575 5.18939 87.4775 5.94539C87.9095 6.70139 88.1255 7.58339 88.1255 8.59139ZM84.9755 7.78139C84.9755 7.25339 84.7955 6.83339 84.4355 6.52139C84.0755 6.20939 83.6255 6.05339 83.0855 6.05339C82.5695 6.05339 82.1315 6.20339 81.7715 6.50339C81.4235 6.80339 81.2075 7.22939 81.1235 7.78139H84.9755ZM91.1893 13.9194C90.6493 13.9194 90.2053 13.7634 89.8573 13.4514C89.5213 13.1274 89.3533 12.7314 89.3533 12.2634C89.3533 11.7834 89.5213 11.3814 89.8573 11.0574C90.2053 10.7334 90.6493 10.5714 91.1893 10.5714C91.7173 10.5714 92.1493 10.7334 92.4853 11.0574C92.8333 11.3814 93.0073 11.7834 93.0073 12.2634C93.0073 12.7314 92.8333 13.1274 92.4853 13.4514C92.1493 13.7634 91.7173 13.9194 91.1893 13.9194ZM96.2694 13.9194C95.7294 13.9194 95.2854 13.7634 94.9374 13.4514C94.6014 13.1274 94.4334 12.7314 94.4334 12.2634C94.4334 11.7834 94.6014 11.3814 94.9374 11.0574C95.2854 10.7334 95.7294 10.5714 96.2694 10.5714C96.7974 10.5714 97.2294 10.7334 97.5654 11.0574C97.9134 11.3814 98.0874 11.7834 98.0874 12.2634C98.0874 12.7314 97.9134 13.1274 97.5654 13.4514C97.2294 13.7634 96.7974 13.9194 96.2694 13.9194ZM101.349 13.9194C100.809 13.9194 100.365 13.7634 100.017 13.4514C99.6815 13.1274 99.5135 12.7314 99.5135 12.2634C99.5135 11.7834 99.6815 11.3814 100.017 11.0574C100.365 10.7334 100.809 10.5714 101.349 10.5714C101.877 10.5714 102.309 10.7334 102.645 11.0574C102.993 11.3814 103.167 11.7834 103.167 12.2634C103.167 12.7314 102.993 13.1274 102.645 13.4514C102.309 13.7634 101.877 13.9194 101.349 13.9194ZM106.43 13.9194C105.89 13.9194 105.446 13.7634 105.098 13.4514C104.762 13.1274 104.594 12.7314 104.594 12.2634C104.594 11.7834 104.762 11.3814 105.098 11.0574C105.446 10.7334 105.89 10.5714 106.43 10.5714C106.958 10.5714 107.39 10.7334 107.726 11.0574C108.074 11.3814 108.248 11.7834 108.248 12.2634C108.248 12.7314 108.074 13.1274 107.726 13.4514C107.39 13.7634 106.958 13.9194 106.43 13.9194Z" fill="black"/>
</svg>
