<svg width="43" height="43" viewBox="0 0 43 43" fill="none" xmlns="http://www.w3.org/2000/svg">
<g clip-path="url(#clip0_1_16729)">
<path fill-rule="evenodd" clip-rule="evenodd" d="M3.80109 19.7439L15.3661 27.751L10.4611 32.6693C10.3273 32.7974 10.2203 32.9509 10.1465 33.1207C10.0726 33.2906 10.0334 33.4735 10.0311 33.6587C10.0287 33.8439 10.0633 34.0277 10.1328 34.1994C10.2023 34.3711 10.3053 34.5273 10.4358 34.6588C10.5663 34.7902 10.7217 34.8944 10.8929 34.9652C11.0642 35.0359 11.2478 35.0719 11.4331 35.0709C11.6184 35.07 11.8016 35.0322 11.9721 34.9596C12.1426 34.8871 12.2969 34.7814 12.4261 34.6486L17.7061 29.3705L21.2011 31.7996C21.4346 31.9615 21.7119 32.0482 21.9961 32.0482C22.2802 32.0482 22.5576 31.9615 22.7911 31.7996L26.2861 29.3705L31.5511 34.6486C31.6811 34.7785 31.8354 34.8816 32.0053 34.952C32.1752 35.0223 32.3572 35.0585 32.5411 35.0585C32.725 35.0585 32.907 35.0223 33.0769 34.952C33.2467 34.8816 33.4011 34.7785 33.5311 34.6486C33.6611 34.5186 33.7642 34.3643 33.8346 34.1945C33.905 34.0247 33.9412 33.8427 33.9412 33.6589C33.9412 33.4751 33.905 33.2931 33.8346 33.1233C33.7642 32.9535 33.6611 32.7993 33.5311 32.6693L28.6261 27.751L40.1911 19.7439V35.1584C40.1951 35.7667 40.0784 36.3698 39.8478 36.9327C39.6172 37.4957 39.2773 38.0074 38.8477 38.4382C38.4181 38.869 37.9073 39.2105 37.3449 39.4428C36.7825 39.6751 36.1796 39.7937 35.5711 39.7917H8.49609C7.88756 39.7937 7.28467 39.6751 6.72227 39.4428C6.15986 39.2105 5.6491 38.869 5.2195 38.4382C4.7899 38.0074 4.44998 37.4957 4.21939 36.9327C3.98881 36.3698 3.87213 35.7667 3.87609 35.1584L3.80109 19.7439ZM14.4961 15.6804C14.1491 15.7163 13.8278 15.8795 13.5942 16.1384C13.3606 16.3974 13.2313 16.7337 13.2313 17.0824C13.2313 17.431 13.3606 17.7674 13.5942 18.0263C13.8278 18.2852 14.1491 18.4484 14.4961 18.4844H29.4961C29.6925 18.5047 29.8909 18.4836 30.0786 18.4224C30.2663 18.3612 30.439 18.2613 30.5856 18.1291C30.7322 17.9969 30.8494 17.8355 30.9296 17.6552C31.0099 17.4748 31.0513 17.2797 31.0513 17.0824C31.0513 16.885 31.0099 16.6899 30.9296 16.5096C30.8494 16.3292 30.7322 16.1678 30.5856 16.0356C30.439 15.9035 30.2663 15.8035 30.0786 15.7423C29.8909 15.6811 29.6925 15.66 29.4961 15.6804H14.4961ZM35.4961 15.0356L39.0361 17.1648L35.4961 19.6239V15.0356ZM8.49609 15.0356V19.534L4.98609 17.1648L8.49609 15.0356ZM14.3161 8.09307C13.9382 8.11693 13.5852 8.28989 13.3348 8.57391C13.0845 8.85792 12.9572 9.22973 12.9811 9.60753C13.005 9.98533 13.178 10.3382 13.4621 10.5884C13.7462 10.8387 14.1182 10.9659 14.4961 10.942H21.9961C22.374 10.942 22.7365 10.792 23.0037 10.5248C23.271 10.2577 23.4211 9.89536 23.4211 9.51756C23.4211 9.13976 23.271 8.77744 23.0037 8.51029C22.7365 8.24315 22.374 8.09307 21.9961 8.09307H14.3161ZM27.9061 5.82888L31.0711 9.59253H27.9061V5.82888ZM12.9961 3.39974H25.1611V11.092C25.1611 11.4658 25.3096 11.8243 25.5741 12.0887C25.8385 12.353 26.1971 12.5015 26.5711 12.5015H32.7061V21.5882L21.9961 28.9356L11.3311 21.5882V5.09414C11.33 4.88164 11.372 4.67112 11.4545 4.47527C11.537 4.27941 11.6583 4.10228 11.8111 3.95454C11.9539 3.77859 12.1346 3.63726 12.3399 3.54116C12.5451 3.44507 12.7695 3.39672 12.9961 3.39974V3.39974ZM26.4961 0.595744H12.9961C11.8026 0.595744 10.658 1.06968 9.81411 1.91329C8.9702 2.75691 8.49609 3.90109 8.49609 5.09414V11.8417L1.76109 15.8903C1.53862 16.0045 1.35053 16.1757 1.21609 16.3865C1.08166 16.5973 1.00574 16.8401 0.996094 17.0899V35.1584C1.01586 37.1338 1.81475 39.0216 3.21913 40.4114C4.62352 41.8013 6.5199 42.5808 8.49609 42.5808H35.6461C37.5962 42.5418 39.4544 41.745 40.8266 40.3594C42.1988 38.9737 42.977 37.1081 42.9961 35.1584V17.0899C42.9946 16.8209 42.9161 16.5579 42.7699 16.3321C42.6237 16.1062 42.4159 15.9269 42.1711 15.8153L35.4961 11.7668V11.4519C35.5539 11.2254 35.5525 10.9879 35.4921 10.762C35.4317 10.5362 35.3143 10.3297 35.1511 10.1623L27.6511 1.16554C27.5213 0.981896 27.3477 0.833581 27.146 0.734072C26.9442 0.634563 26.7209 0.587014 26.4961 0.595744Z" fill="#48B774"/>
</g>
<defs>
<clipPath id="clip0_1_16729">
<rect width="42" height="42" fill="white" transform="translate(0.996094 0.595215)"/>
</clipPath>
</defs>
</svg>
