<svg width="42" height="43" viewBox="0 0 42 43" fill="none" xmlns="http://www.w3.org/2000/svg">
<g clip-path="url(#clip0_1_16731)">
<path fill-rule="evenodd" clip-rule="evenodd" d="M27 18.3612C27.3238 18.3365 27.6473 18.4125 27.9287 18.5794C28.21 18.7463 28.4361 18.9965 28.5777 19.2974C28.7193 19.5983 28.7698 19.936 28.7228 20.2669C28.6757 20.5977 28.5331 20.9063 28.3136 21.1527C28.0941 21.3991 27.8078 21.5718 27.4918 21.6486C27.1758 21.7254 26.8446 21.7026 26.5414 21.5831C26.2381 21.4637 25.9766 21.2532 25.7909 20.979C25.6053 20.7047 25.5039 20.3793 25.5 20.0449C25.4876 19.6183 25.6375 19.2036 25.9177 18.8891C26.1978 18.5746 26.5862 18.3852 27 18.3612V18.3612ZM27 15.4109C26.1314 15.4262 25.2864 15.7044 24.5703 16.2109C23.8542 16.7174 23.2987 17.4298 22.9732 18.2592C22.6476 19.0887 22.5663 19.9984 22.7394 20.8751C22.9125 21.7518 23.3324 22.5566 23.9467 23.1892C24.561 23.8218 25.3425 24.2542 26.1938 24.4324C27.0451 24.6107 27.9286 24.527 28.734 24.1917C29.5394 23.8564 30.2312 23.2844 30.7231 22.547C31.2149 21.8096 31.4851 20.9394 31.5 20.0449C31.5 18.8159 31.0259 17.6372 30.182 16.7681C29.3381 15.8991 28.1935 15.4109 27 15.4109ZM27 13.6499C27.8164 13.6416 28.6261 13.8015 29.3815 14.1203C30.1369 14.4392 30.8227 14.9104 31.3986 15.5063C31.9745 16.1022 32.4288 16.8108 32.7347 17.5902C33.0406 18.3697 33.192 19.2043 33.18 20.0449C33.0075 22.5425 32.3115 24.9719 31.14 27.1659C30.5978 28.2404 29.8884 29.2161 29.04 30.0545C28.5103 30.6242 27.794 30.971 27.03 31.0276C26.2691 30.9761 25.5557 30.6282 25.035 30.0545C24.1866 29.2161 23.4772 28.2404 22.935 27.1659C21.7568 24.9747 21.0604 22.5438 20.895 20.0449C20.8891 19.2154 21.0426 18.3929 21.3467 17.6248C21.6509 16.8567 22.0996 16.1581 22.6671 15.5694C23.2346 14.9807 23.9096 14.5135 24.6533 14.1947C25.3969 13.8758 26.1945 13.7117 27 13.7117V13.6499ZM16.5 3.93384L23.205 6.25087C24.0106 6.51504 24.8397 6.69615 25.68 6.79151V10.9467C23.5945 11.3097 21.6998 12.4174 20.3283 14.0754C18.9569 15.7335 18.1963 17.836 18.18 20.014C18.3081 23.0057 19.1256 25.9232 20.565 28.5252C21.2511 29.8895 22.1592 31.1225 23.25 32.1707C23.9634 32.8368 24.8074 33.3373 25.725 33.6381V35.9861C25.725 36.1747 25.7611 36.3615 25.8312 36.5358C25.9013 36.7101 26.004 36.8685 26.1336 37.0019C26.2631 37.1353 26.4169 37.2411 26.5862 37.3133C26.7554 37.3855 26.9368 37.4226 27.12 37.4226C27.3032 37.4226 27.4846 37.3855 27.6538 37.3133C27.8231 37.2411 27.9769 37.1353 28.1064 37.0019C28.236 36.8685 28.3387 36.7101 28.4088 36.5358C28.4789 36.3615 28.515 36.1747 28.515 35.9861V33.6381C29.4353 33.3437 30.2806 32.8425 30.99 32.1707C32.0855 31.1232 32.9987 29.8902 33.69 28.5252C35.0928 25.9231 35.884 23.0187 36 20.0449C35.9943 17.8589 35.2385 15.7454 33.8661 14.0777C32.4937 12.41 30.5931 11.2956 28.5 10.9313V6.80696C29.3408 6.70636 30.1699 6.52009 30.975 6.25087L37.755 3.9184C37.9275 3.85551 38.1122 3.83688 38.2932 3.86412C38.4742 3.89137 38.6461 3.96366 38.7938 4.07474C38.9416 4.18582 39.0608 4.33234 39.1412 4.50159C39.2215 4.67083 39.2606 4.85771 39.255 5.04602V33.4528C39.2549 34.2154 39.0215 34.9586 38.588 35.5769C38.1545 36.1953 37.5429 36.6573 36.84 36.8974L30 39.2145C28.0526 39.8823 25.9474 39.8823 24 39.2145L17.295 36.8974C16.4927 36.6236 15.6621 36.4474 14.82 36.3722V8.5679C14.8167 8.20259 14.6784 7.85229 14.4331 7.58829C14.1879 7.32429 13.8542 7.16641 13.5 7.14679C13.3162 7.14674 13.1343 7.1845 12.9649 7.25784C12.7955 7.33118 12.642 7.43863 12.5134 7.57389C12.3849 7.70914 12.2839 7.86947 12.2163 8.04547C12.1487 8.22146 12.116 8.40959 12.12 8.59879V36.4031C11.2595 36.5156 10.4141 36.7281 9.6 37.0365L4.23 39.1218C4.06655 39.2129 3.88203 39.2564 3.69636 39.2474C3.51069 39.2384 3.33093 39.1773 3.17651 39.0708C3.02209 38.9642 2.89888 38.8163 2.82018 38.6428C2.74149 38.4694 2.7103 38.2772 2.73 38.0868V9.71097C2.74478 8.92422 2.99261 8.16089 3.44029 7.52319C3.88798 6.88549 4.51416 6.40385 5.235 6.14274L10.575 4.04197C11.5101 3.67708 12.5001 3.48365 13.5 3.47044C14.5183 3.44899 15.5327 3.60569 16.5 3.93384V3.93384ZM13.5 0.597323C12.1668 0.610285 10.8463 0.866549 9.6 1.35422L4.23 3.40865C2.98658 3.89208 1.91571 4.75417 1.16002 5.88008C0.404324 7.006 -0.000313645 8.34229 1.8241e-07 9.71097V38.0868C0.00885085 38.7283 0.16624 39.3584 0.459088 39.9247C0.751936 40.4909 1.17179 40.9771 1.68375 41.3426C2.19572 41.7082 2.78501 41.9427 3.40267 42.0266C4.02032 42.1105 4.6485 42.0414 5.235 41.825L10.575 39.7551C12.478 39.0164 14.5695 38.9728 16.5 39.6315L23.205 41.9486C25.719 42.7986 28.431 42.7986 30.945 41.9486L37.725 39.6315C38.9818 39.1957 40.0743 38.3653 40.8492 37.2571C41.6241 36.1488 42.0422 34.8184 42.045 33.4528V5.04602C42.0371 4.40365 41.8831 3.77213 41.5953 3.20217C41.3074 2.63222 40.8938 2.1397 40.3877 1.76417C39.8815 1.38864 39.2969 1.14057 38.6808 1.03986C38.0647 0.939156 37.4342 0.988627 36.84 1.1843L30 3.51678C28.0526 4.18462 25.9474 4.18462 24 3.51678L17.34 1.19975C16.1025 0.775684 14.8039 0.571957 13.5 0.597323V0.597323Z" fill="#48B774"/>
</g>
<defs>
<clipPath id="clip0_1_16731">
<rect width="42" height="42" fill="white" transform="translate(0 0.595215)"/>
</clipPath>
</defs>
</svg>
