<svg width="16" height="22" viewBox="0 0 16 22" fill="none" xmlns="http://www.w3.org/2000/svg">
<path d="M13.2714 10.5178C13.1393 10.4121 12.9807 10.324 12.8398 10.2271C12.7429 10.1126 12.6195 10.0333 12.4698 9.98044C11.5272 9.4431 10.4614 9.12598 9.40431 9.12598C9.18409 9.12598 8.98149 9.21407 8.82293 9.36382L7.74825 10.4473L6.66476 9.37263C6.51501 9.21407 6.3036 9.13479 6.08337 9.13479C5.0175 9.13479 3.93402 9.46071 2.99147 10.0069C2.85933 10.0509 2.75363 10.1302 2.66554 10.2271C2.51579 10.324 2.35723 10.4121 2.21629 10.5178C1.11518 11.381 0.269531 12.6407 0.269531 14.1118V16.6047C0.269531 19.3531 2.50698 21.5817 5.25534 21.5817H10.2412C12.9895 21.5817 15.227 19.3531 15.227 16.6047V14.1118C15.2182 12.6407 14.3725 11.381 13.2714 10.5178ZM9.66858 10.8789C10.109 10.9142 10.5759 11.0023 11.0251 11.1696L10.0738 12.764L8.92864 11.6189L9.66858 10.8789ZM6.57667 11.6189L5.43152 12.764L4.48016 11.1696C4.92942 11.0111 5.39628 10.9142 5.83673 10.8789L6.57667 11.6189ZM13.5621 16.6047C13.5621 18.4546 12.091 19.9168 10.2412 19.9168H5.25534C3.39667 19.9168 1.9344 18.4546 1.9344 16.6047V14.1118C1.9344 13.3542 2.36604 12.6231 3.05313 12.0153L4.55063 14.5346C4.82371 15.0015 5.46676 15.0808 5.85435 14.702L7.74825 12.7905L9.65096 14.6932C10.0386 15.072 10.6728 14.9927 10.9547 14.5258L12.4522 12.0065C13.1393 12.6143 13.5709 13.3454 13.5709 14.103V16.6047H13.5621Z" fill="#48B774"/>
<path d="M7.74863 7.46991C9.80109 7.46991 11.4924 5.78742 11.4924 3.73495C11.4924 1.68249 9.8099 0 7.74863 0C5.69616 0 4.01367 1.68249 4.01367 3.73495C4.01367 5.78742 5.68735 7.46991 7.74863 7.46991ZM7.74863 1.65606C8.90259 1.65606 9.82752 2.58099 9.82752 3.73495C9.82752 4.88891 8.90259 5.81384 7.74863 5.81384C6.59467 5.81384 5.67855 4.88891 5.67855 3.73495C5.67855 2.58099 6.58586 1.65606 7.74863 1.65606Z" fill="#48B774"/>
<path d="M11.0687 15.7676H10.2406C9.13072 15.7676 9.13072 17.4325 10.2406 17.4325H11.0687C12.1698 17.4325 12.1698 15.7676 11.0687 15.7676Z" fill="#48B774"/>
</svg>
