<svg width="20" height="21" viewBox="0 0 20 21" fill="none" xmlns="http://www.w3.org/2000/svg">
<path fill-rule="evenodd" clip-rule="evenodd" d="M1.33571 9.71691L6.84286 13.5311L4.50714 15.8739C4.44342 15.9349 4.39249 16.008 4.35733 16.089C4.32217 16.1699 4.30348 16.257 4.30236 16.3452C4.30124 16.4334 4.3177 16.521 4.35079 16.6028C4.38388 16.6846 4.43294 16.759 4.49509 16.8216C4.55724 16.8842 4.63125 16.9338 4.71278 16.9675C4.79432 17.0012 4.88176 17.0184 4.96999 17.0179C5.05822 17.0175 5.14548 16.9994 5.22667 16.9649C5.30786 16.9304 5.38135 16.88 5.44286 16.8167L7.95714 14.3025L9.62143 15.4596C9.73261 15.5367 9.86469 15.5781 10 15.5781C10.1353 15.5781 10.2674 15.5367 10.3786 15.4596L12.0429 14.3025L14.55 16.8167C14.6119 16.8786 14.6854 16.9277 14.7663 16.9613C14.8472 16.9948 14.9339 17.012 15.0214 17.012C15.109 17.012 15.1957 16.9948 15.2766 16.9613C15.3575 16.9278 15.4309 16.8786 15.4929 16.8167C15.5548 16.7548 15.6039 16.6813 15.6374 16.6004C15.6709 16.5196 15.6881 16.4329 15.6881 16.3453C15.6881 16.2578 15.6709 16.1711 15.6374 16.0902C15.6039 16.0093 15.5548 15.9358 15.4929 15.8739L13.1571 13.5311L18.6643 9.71691V17.0596C18.6662 17.3494 18.6106 17.6366 18.5008 17.9048C18.391 18.1729 18.2291 18.4167 18.0246 18.6219C17.82 18.8271 17.5768 18.9898 17.309 19.1005C17.0412 19.2111 16.7541 19.2676 16.4643 19.2667H3.57143C3.28165 19.2676 2.99456 19.2111 2.72675 19.1005C2.45894 18.9898 2.21572 18.8271 2.01114 18.6219C1.80657 18.4167 1.64471 18.1729 1.5349 17.9048C1.4251 17.6366 1.36954 17.3494 1.37143 17.0596L1.33571 9.71691ZM6.42857 7.78124C6.26336 7.79835 6.11034 7.87609 5.99911 7.99944C5.88787 8.12278 5.8263 8.28298 5.8263 8.44908C5.8263 8.61518 5.88787 8.77538 5.99911 8.89873C6.11034 9.02207 6.26336 9.09981 6.42857 9.11692H13.5714C13.6649 9.1266 13.7594 9.11654 13.8488 9.08739C13.9382 9.05824 14.0204 9.01065 14.0902 8.94769C14.1601 8.88474 14.2159 8.80783 14.2541 8.72193C14.2923 8.63604 14.312 8.54309 14.312 8.44908C14.312 8.35508 14.2923 8.26212 14.2541 8.17623C14.2159 8.09034 14.1601 8.01342 14.0902 7.95047C14.0204 7.88751 13.9382 7.83992 13.8488 7.81077C13.7594 7.78162 13.6649 7.77156 13.5714 7.78124H6.42857ZM16.4286 7.4741L18.1143 8.48837L16.4286 9.65977V7.4741ZM3.57143 7.4741V9.61691L1.9 8.48837L3.57143 7.4741ZM6.34286 4.16704C6.16289 4.17841 5.99481 4.2608 5.87559 4.39609C5.75637 4.53138 5.69578 4.70849 5.70714 4.88845C5.71851 5.06842 5.8009 5.23649 5.9362 5.35571C6.07149 5.47493 6.2486 5.53552 6.42857 5.52415H10C10.18 5.52415 10.3526 5.45266 10.4798 5.32541C10.6071 5.19815 10.6786 5.02556 10.6786 4.8456C10.6786 4.66563 10.6071 4.49304 10.4798 4.36579C10.3526 4.23853 10.18 4.16704 10 4.16704H6.34286ZM12.8143 3.0885L14.3214 4.88131H12.8143V3.0885ZM5.71429 1.93138H11.5071V5.59558C11.5071 5.77365 11.5779 5.94442 11.7038 6.07034C11.8297 6.19625 12.0005 6.26699 12.1786 6.26699H15.1V10.5955L10 14.0954L4.92143 10.5955V2.7385C4.92092 2.63728 4.94091 2.537 4.98019 2.44371C5.01948 2.35041 5.07724 2.26604 5.15 2.19566C5.21798 2.11184 5.30407 2.04452 5.4018 1.99875C5.49954 1.95297 5.60637 1.92994 5.71429 1.93138V1.93138ZM12.1429 0.5957H5.71429C5.14596 0.5957 4.60092 0.821459 4.19906 1.22331C3.79719 1.62517 3.57143 2.1702 3.57143 2.7385V5.95271L0.364286 7.88124C0.258346 7.93562 0.168777 8.0172 0.104762 8.11762C0.0407479 8.21803 0.00459132 8.33366 0 8.45265V17.0596C0.00941046 18.0006 0.389835 18.8998 1.05859 19.5619C1.72735 20.2239 2.63038 20.5953 3.57143 20.5952H16.5C17.4286 20.5767 18.3135 20.1971 18.9669 19.5371C19.6203 18.877 19.9909 17.9883 20 17.0596V8.45265C19.9993 8.32452 19.9619 8.19926 19.8923 8.09168C19.8227 7.9841 19.7237 7.89869 19.6071 7.84552L16.4286 5.917V5.767C16.4561 5.65912 16.4554 5.54597 16.4267 5.43841C16.3979 5.33085 16.342 5.23248 16.2643 5.15273L12.6929 0.867122C12.6311 0.779643 12.5484 0.708993 12.4523 0.661592C12.3563 0.614191 12.2499 0.591541 12.1429 0.5957Z" fill="#48B774"/>
</svg>
