<svg width="432" height="38" viewBox="0 0 432 38" fill="none" xmlns="http://www.w3.org/2000/svg">
<path d="M68.4649 0.880287C70.4094 0.880287 71.9915 2.19542 71.9915 3.81205V33.9045C71.9915 35.521 70.4095 36.8362 68.4649 36.8362H5.0623C3.11783 36.8362 1.53576 35.5211 1.53576 33.9045V3.81205C1.53576 2.19553 3.11769 0.880287 5.0623 0.880287H68.4649ZM68.4649 0.296875H5.0623C2.72709 0.296875 0.833984 1.87069 0.833984 3.81205V33.9045C0.833984 35.8459 2.72709 37.4196 5.0623 37.4196H68.4649C70.8003 37.4196 72.6933 35.8459 72.6933 33.9045V3.81205C72.6933 1.87069 70.8001 0.296875 68.4649 0.296875Z" fill="#0098D0"/>
<path d="M37.6917 16.9626V15.7822C37.6917 15.7822 37.6166 14.858 36.4563 14.858H34.6525V16.9626H32.8008V10.8953H37.2963C37.2963 10.8953 39.6426 10.6591 39.6426 12.6711C39.6426 13.7184 38.6054 14.0876 38.6054 14.0876C38.6054 14.0876 39.5059 14.4373 39.5059 15.464V16.9624H37.6917V16.9626ZM34.6526 13.431H36.5675C37.1235 13.431 37.5807 13.1741 37.5807 12.8562C37.5807 12.5376 37.1235 12.2809 36.5675 12.2809H34.6526V13.431Z" fill="url(#paint0_radial_1509_580)"/>
<path d="M59.5482 16.9648L56.6095 12.9095V16.9648H55.0163H54.7187H52.9793L52.3242 15.6919H48.9408L48.2976 16.9648H46.5931H46.2849H45.3952C45.3952 16.9648 42.9014 16.6674 42.9014 14.1006C42.9014 10.7326 45.7301 10.8664 45.8279 10.8457L48.1126 10.8975V12.2628L46.2365 12.2829C46.2365 12.2829 45.0133 12.2829 44.8644 13.6079C44.847 13.76 44.8391 13.8998 44.8404 14.0297C44.847 16.0808 46.9817 15.444 47.0515 15.4251L49.3482 10.8975H51.9409L54.7187 16.4006V10.8975H57.337L60.2394 14.8916V10.8975H62.1047V16.9648H59.5482ZM49.7313 14.1418H51.5334L50.6451 12.3347L49.7313 14.1418Z" fill="url(#paint1_radial_1509_580)"/>
<path d="M23.1528 16.9631V12.7751L20.8319 16.9631H19.3131L16.9789 12.7953V16.9631H15.3614H15.1141H13.3235L12.6816 15.6904H9.29809L8.64348 16.9631H6.61816L9.69277 10.8965H12.299L15.1142 16.4707V10.8965H18.0409L20.079 14.6639L22.1052 10.8965H25.0317V16.9631H23.1528ZM10.088 14.1404H11.8909L10.9898 12.3335L10.088 14.1404Z" fill="url(#paint2_radial_1509_580)"/>
<path d="M26.0566 16.9651V10.8984H31.8373V12.3148H27.922V13.2489H31.7382V14.6247H27.922V15.6517H31.8373V16.9651H26.0566Z" fill="url(#paint3_radial_1509_580)"/>
<path d="M40.4072 16.9844V10.8984H42.2711V16.9844H40.4072Z" fill="url(#paint4_radial_1509_580)"/>
<path d="M44.8422 27.2486V26.068C44.8422 26.068 44.7673 25.1447 43.6068 25.1447H41.8044V27.2486H39.9512V21.1824H44.4467C44.4467 21.1824 46.7931 20.9463 46.7931 22.9583C46.7931 24.0053 45.756 24.3752 45.756 24.3752C45.756 24.3752 46.6459 24.7238 46.6459 25.7495V27.2487H44.8422V27.2486ZM41.8044 23.7179H43.7194C44.2741 23.7179 44.731 23.4618 44.731 23.1432C44.731 22.8249 44.2741 22.5684 43.7194 22.5684H41.8044V23.7179Z" fill="url(#paint5_radial_1509_580)"/>
<path d="M32.4915 27.2365H30.8727L28.911 25.4395L26.9333 27.2365H25.8103H20.043V21.1591H25.8103H26.7859L28.9111 23.0892L31.0472 21.1692H32.4675V21.1591H36.9619C36.9619 21.1591 39.3083 20.9432 39.3083 22.9444C39.3083 24.7311 38.5297 25.2858 36.1337 25.2858H34.3194V27.2365H32.4915ZM30.1705 24.25L32.4672 26.3642V22.1445L30.1705 24.25ZM21.9083 25.9233H25.8103L27.6381 24.25L25.8103 22.5857H21.9083V23.5192H25.7112V24.8961H21.9083V25.9233ZM34.3193 23.7041H36.2327C36.7888 23.7041 37.2458 23.4479 37.2458 23.1294C37.2458 22.8119 36.7888 22.5545 36.2327 22.5545H34.3193V23.7041Z" fill="url(#paint6_radial_1509_580)"/>
<path d="M57.4748 27.2268H54.1771V25.8297H57.0677C57.0677 25.8297 58.1049 25.9324 58.1049 25.3486C58.1049 24.8026 56.5371 24.8449 56.5371 24.8449C56.5371 24.8449 53.9805 25.03 53.9805 23.038C53.9805 21.0562 56.2891 21.1692 56.2891 21.1692H59.8467V22.5857H56.9821C56.9821 22.5857 55.9931 22.421 55.9931 23.0181C55.9931 23.5194 57.3384 23.4481 57.3384 23.4481C57.3384 23.4481 60.167 23.2743 60.167 25.1012C60.167 27.0609 58.3446 27.2346 57.6988 27.2346C57.5595 27.2345 57.4748 27.2268 57.4748 27.2268Z" fill="url(#paint7_radial_1509_580)"/>
<path d="M47.5586 27.2342V21.1777H53.3367V22.5839H49.4224V23.5174H53.2387V24.8941H49.4224V25.9212H53.3367V27.2342H47.5586Z" fill="url(#paint8_radial_1509_580)"/>
<path d="M64.0034 27.2268H60.7057V25.8297H63.584C63.584 25.8297 64.6334 25.9324 64.6334 25.3486C64.6334 24.8026 63.0658 24.8449 63.0658 24.8449C63.0658 24.8449 60.5088 25.03 60.5088 23.038C60.5088 21.0562 62.8175 21.1692 62.8175 21.1692H66.3632V22.5857H63.5092C63.5092 22.5857 62.5213 22.421 62.5213 23.0181C62.5213 23.5194 63.8682 23.4481 63.8682 23.4481C63.8682 23.4481 66.6955 23.2743 66.6955 25.1012C66.6955 27.0609 64.8733 27.2346 64.2275 27.2346C64.0879 27.2345 64.0034 27.2268 64.0034 27.2268Z" fill="url(#paint9_radial_1509_580)"/>
<path d="M140.316 0.880289C142.261 0.880289 143.843 2.19542 143.843 3.81206V33.9044C143.843 35.521 142.261 36.8362 140.316 36.8362H76.9139C74.9694 36.8362 73.3873 35.5211 73.3873 33.9044V3.81206C73.3873 2.19554 74.9693 0.880289 76.9139 0.880289H140.316ZM140.316 0.296875H76.9139C74.5787 0.296875 72.6855 1.87069 72.6855 3.81206V33.9044C72.6855 35.8461 74.5787 37.4196 76.9139 37.4196H140.316C142.652 37.4196 144.545 35.8461 144.545 33.9044V3.81206C144.545 1.87069 142.652 0.296875 140.316 0.296875Z" fill="#1B557D"/>
<path d="M126.15 14.5187C124.637 14.5187 123.44 14.8527 122.524 15.0048L122.242 16.9178C122.7 16.7355 124.143 16.4017 125.341 16.3712C126.538 16.3407 127.242 16.5531 126.996 17.4036C123.44 17.4036 121.045 18.0107 120.552 19.9242C119.848 23.2039 124.179 23.1127 125.904 21.6854L125.693 22.4751H128.861L130.235 17.2519C130.798 15.0347 128.368 14.4885 126.15 14.5187ZM126.361 19.8632C126.185 20.5613 125.517 20.8656 124.707 20.8963C124.003 20.9262 123.369 20.4096 123.827 19.8027C124.18 19.2866 125.165 19.1649 125.764 19.1649C126.01 19.1649 126.293 19.1649 126.538 19.1649C126.467 19.4079 126.431 19.6207 126.361 19.8632Z" fill="#107DB0"/>
<path d="M132.949 12.4531L130.327 22.4736H133.546L136.2 12.4531H132.949Z" fill="#107DB0"/>
<path d="M118.16 12.4824H112.268L109.656 22.4707H113.079L113.961 19.1615H116.397C118.796 19.1615 120.772 17.9472 121.302 15.8826C121.901 13.5451 119.854 12.4824 118.16 12.4824ZM118.055 15.8826C117.843 16.6416 116.925 17.2488 116.043 17.2488H114.455L115.161 14.5166H116.855C117.737 14.5166 118.267 15.1237 118.055 15.8826Z" fill="#107DB0"/>
<path d="M95.2917 14.5187C93.7962 14.5187 92.6133 14.8527 91.744 15.0048L91.4659 16.9178C91.8832 16.7355 93.3096 16.4017 94.4915 16.3712C95.6743 16.3407 96.37 16.5531 96.161 17.4036C92.6485 17.4036 90.2836 18.0107 89.7966 19.9242C89.1007 23.2039 93.3785 23.1127 95.0478 21.6854L94.8395 22.4751H98.0045L99.3607 17.2519C99.9172 15.0347 97.4823 14.4885 95.2917 14.5187ZM95.5348 19.8632C95.361 20.5613 94.6653 20.8656 93.8654 20.8963C93.1697 20.9262 92.5786 20.4096 93.0307 19.8027C93.3784 19.2866 94.3522 19.1649 94.9088 19.1649C95.1871 19.1649 95.4302 19.1649 95.7087 19.1649C95.6394 19.4079 95.5697 19.6207 95.5348 19.8632Z" fill="#1B557D"/>
<path d="M100.74 14.6602H103.904L104.415 19.3125L107.511 14.6602H110.777L103.258 25.7941H99.7188L102.032 22.5207L100.74 14.6602Z" fill="#1B557D"/>
<path d="M87.4196 12.4824H81.5114L78.8936 22.4707H82.361L83.2099 19.1615H85.686C88.0563 19.1615 90.0378 17.9472 90.5682 15.8826C91.1694 13.5451 89.153 12.4824 87.4196 12.4824ZM87.3134 15.8826C87.1012 16.6416 86.2168 17.2488 85.3323 17.2488H83.7049L84.4479 14.5166H86.1459C86.9954 14.5166 87.5611 15.1237 87.3134 15.8826Z" fill="#1B557D"/>
<path d="M136.893 13.7501V12.5667H136.363V12.4082H137.641V12.5667H137.108V13.7501H136.893Z" fill="#1B557D"/>
<path d="M137.851 13.7501V12.4082H138.17L138.552 13.358C138.587 13.4464 138.613 13.5126 138.629 13.5565C138.648 13.5078 138.676 13.4361 138.715 13.3415L139.102 12.4082H139.389V13.7501H139.184V12.6267L138.713 13.7501H138.521L138.056 12.6083V13.7501H137.851Z" fill="#1B557D"/>
<path d="M427.762 0.880287C429.706 0.880287 431.288 2.19542 431.288 3.81205V33.9045C431.288 35.521 429.706 36.8362 427.762 36.8362H364.359C362.415 36.8362 360.833 35.5211 360.833 33.9045V3.81205C360.833 2.19553 362.415 0.880287 364.359 0.880287H427.762ZM427.762 0.296875H364.359C362.024 0.296875 360.131 1.87069 360.131 3.81205V33.9045C360.131 35.8459 362.024 37.4196 364.359 37.4196H427.762C430.097 37.4196 431.99 35.8459 431.99 33.9045V3.81205C431.99 1.87069 430.097 0.296875 427.762 0.296875Z" fill="#005098"/>
<path d="M386.802 26.3066L389.84 11.4785H394.704L391.66 26.3066H386.802Z" fill="#005098"/>
<path d="M409.296 11.8436C408.334 11.543 406.824 11.2207 404.938 11.2207C400.135 11.2207 396.751 13.2315 396.721 16.1141C396.694 18.2441 399.136 19.4336 400.981 20.1425C402.874 20.8695 403.51 21.333 403.502 21.9821C403.489 22.9759 401.99 23.4292 400.592 23.4292C398.647 23.4292 397.613 23.2054 396.016 22.6513L395.391 22.4161L394.708 25.7358C395.842 26.1495 397.942 26.5079 400.124 26.5259C405.235 26.5259 408.551 24.5383 408.589 21.4595C408.608 19.7739 407.313 18.4906 404.509 17.4317C402.809 16.7454 401.767 16.288 401.778 15.5932C401.778 14.9771 402.659 14.318 404.563 14.318C406.152 14.2971 407.305 14.5854 408.2 14.886L408.638 15.0573L409.296 11.8436Z" fill="#005098"/>
<path d="M421.761 11.4922H418.004C416.84 11.4922 415.969 11.7561 415.458 12.7217L408.238 26.3111H413.344C413.344 26.3111 414.177 24.4839 414.367 24.0826C414.925 24.0826 419.883 24.0894 420.593 24.0894C420.738 24.6083 421.184 26.3111 421.184 26.3111H425.696L421.761 11.4922ZM415.765 21.0501C416.168 20.1953 417.702 16.9046 417.702 16.9046C417.675 16.9441 418.102 16.0459 418.347 15.4891L418.676 16.7677C418.676 16.7677 419.606 20.3072 419.802 21.0501H415.765Z" fill="#005098"/>
<path d="M382.723 11.4883L377.963 21.6008L377.454 19.5463C376.57 17.1763 373.809 14.6096 370.722 13.3252L375.074 26.2943L380.218 26.2887L387.872 11.4883H382.723Z" fill="#005098"/>
<path d="M373.549 11.4805H365.706L365.646 11.7887C371.745 13.0166 375.782 15.9834 377.455 19.5484L375.752 12.7323C375.458 11.7931 374.604 11.5133 373.549 11.4805Z" fill="#F6A500"/>
<path d="M355.898 0.880287C357.842 0.880287 359.424 2.19542 359.424 3.81205V33.9045C359.424 35.521 357.842 36.8362 355.898 36.8362H292.495C290.55 36.8362 288.968 35.5211 288.968 33.9045V3.81205C288.968 2.19553 290.55 0.880287 292.495 0.880287H355.898ZM355.898 0.296875H292.495C290.16 0.296875 288.267 1.87069 288.267 3.81205V33.9045C288.267 35.8459 290.16 37.4196 292.495 37.4196H355.898C358.233 37.4196 360.126 35.8459 360.126 33.9045V3.81205C360.126 1.87069 358.233 0.296875 355.898 0.296875Z" fill="#E30613"/>
<path fill-rule="evenodd" clip-rule="evenodd" d="M324.296 30.2817C327.474 32.7165 331.743 34.1931 336.386 34.1931C346.356 34.1931 354.427 27.4325 354.427 19.117C354.427 10.7764 346.356 4.01562 336.386 4.01562C331.743 4.01562 327.474 5.492 324.296 7.92703C320.651 10.6985 318.345 14.6879 318.345 19.117C318.345 23.5466 320.651 27.5362 324.296 30.2817Z" fill="#FAB31E"/>
<path fill-rule="evenodd" clip-rule="evenodd" d="M330.122 17.511C330.06 16.9671 329.936 16.449 329.81 15.905H318.781C318.905 15.361 319.092 14.8429 319.279 14.3248H329.281C329.063 13.7812 328.813 13.237 328.533 12.7189H320.058C320.37 12.1753 320.712 11.6311 321.086 11.113H327.474C327.069 10.5691 326.601 10.025 326.103 9.53292H322.457C323.018 8.96316 323.641 8.41919 324.295 7.92703C321.086 5.5179 316.848 4.01562 312.175 4.01562C302.235 4.01562 294.134 10.7764 294.134 19.117C294.134 27.4325 302.235 34.1931 312.175 34.1931C316.848 34.1931 321.086 32.7165 324.295 30.2817C324.95 29.7892 325.542 29.2713 326.103 28.7014H322.457C321.958 28.1834 321.522 27.6654 321.086 27.0955H327.474C327.879 26.5775 328.221 26.0595 328.533 25.4895H320.058C319.777 24.9715 319.497 24.4534 319.279 23.9091H329.281C329.499 23.3912 329.655 22.8473 329.81 22.3033C329.936 21.7853 330.06 21.241 330.122 20.6973C330.185 20.1792 330.216 19.6612 330.216 19.1169C330.216 18.5732 330.185 18.0291 330.122 17.511Z" fill="#E40520"/>
<path fill-rule="evenodd" clip-rule="evenodd" d="M352.026 22.6178C352.026 22.3327 352.275 22.125 352.587 22.125C352.93 22.125 353.179 22.3325 353.179 22.6178C353.179 22.8774 352.93 23.1114 352.587 23.1114C352.276 23.1114 352.026 22.8774 352.026 22.6178ZM352.587 22.9811C352.836 22.9811 353.054 22.8255 353.054 22.6178C353.054 22.4101 352.836 22.2543 352.587 22.2543C352.369 22.2543 352.151 22.4101 352.151 22.6178C352.151 22.8255 352.369 22.9811 352.587 22.9811ZM352.525 22.8255H352.4V22.41H352.618C352.65 22.41 352.712 22.41 352.743 22.41C352.805 22.4364 352.805 22.4883 352.805 22.5401C352.805 22.5659 352.774 22.6177 352.712 22.644L352.837 22.8255H352.681L352.619 22.6698H352.525V22.8255V22.5921H352.587C352.619 22.5921 352.65 22.5921 352.65 22.5659C352.681 22.5659 352.681 22.5401 352.681 22.5141C352.681 22.5141 352.681 22.4883 352.65 22.4883C352.65 22.4619 352.618 22.4883 352.587 22.4883H352.525V22.5921V22.8255H352.525Z" fill="white"/>
<path fill-rule="evenodd" clip-rule="evenodd" d="M318.156 23.4689C317.565 23.5982 317.128 23.6761 316.692 23.6761C315.757 23.6761 315.196 23.1836 315.196 22.303C315.196 22.122 315.227 21.9403 315.259 21.733L315.383 21.137L315.477 20.6451L316.318 16.3965H318.188L317.969 17.3291H319.154L318.873 18.8835H317.689L317.191 21.4222C317.159 21.552 317.159 21.6293 317.159 21.6812C317.159 22.0185 317.346 22.1475 317.814 22.1475C318.032 22.1475 318.219 22.122 318.406 22.0957L318.156 23.4689Z" fill="#06326E"/>
<path fill-rule="evenodd" clip-rule="evenodd" d="M324.2 23.4184C323.515 23.5739 322.892 23.6513 322.206 23.6513C320.087 23.6513 318.872 22.7189 318.872 20.8796C318.872 18.73 320.305 17.1758 322.299 17.1758C323.889 17.1758 324.917 18.0567 324.917 19.4292C324.917 19.8953 324.855 20.336 324.699 20.9575H320.804C320.772 21.0612 320.772 21.113 320.772 21.1647C320.772 21.89 321.364 22.2524 322.486 22.2524C323.203 22.2524 323.826 22.1235 324.512 21.8643L324.2 23.4184ZM323.047 19.7143C323.047 19.5847 323.047 19.481 323.047 19.4035C323.047 18.8856 322.705 18.6004 322.112 18.6004C321.489 18.6004 321.053 18.9892 320.866 19.7143H323.047Z" fill="#06326E"/>
<path fill-rule="evenodd" clip-rule="evenodd" d="M303.203 23.5468H301.272L302.393 17.6659L299.869 23.5468H298.53L298.374 17.692L297.19 23.5468H295.289L296.816 15.9043H299.651L299.714 20.6191L301.614 15.9043H304.73L303.203 23.5468Z" fill="#06326E"/>
<path fill-rule="evenodd" clip-rule="evenodd" d="M307.906 20.7758C307.719 20.7503 307.656 20.7503 307.532 20.7503C306.41 20.7503 305.849 21.1129 305.849 21.6827C305.849 22.0715 306.13 22.3306 306.566 22.3306C307.501 22.3307 307.875 21.6828 307.906 20.7758ZM309.464 23.5476H307.781L307.812 22.9003C307.376 23.3922 306.784 23.6513 305.756 23.6513C304.821 23.6513 304.011 22.9523 304.011 21.9418C304.011 21.6573 304.073 21.3983 304.166 21.1386C304.478 20.1804 305.631 19.5847 307.407 19.559C307.625 19.559 307.968 19.559 308.28 19.5847C308.342 19.3775 308.342 19.3 308.342 19.1701C308.342 18.7557 307.937 18.6267 307.033 18.6267C306.472 18.6267 305.849 18.7039 305.413 18.8338L305.133 18.8854L305.008 18.9111L305.288 17.5125C306.192 17.2797 306.846 17.1758 307.563 17.1758C309.245 17.1758 310.149 17.8233 310.149 19.0147C310.149 19.3255 310.18 19.559 310.056 20.2324L309.619 22.4598L309.557 22.8486L309.526 23.1595L309.495 23.3666L309.464 23.5476Z" fill="#06326E"/>
<path fill-rule="evenodd" clip-rule="evenodd" d="M333.613 17.3827C334.173 17.3827 334.672 17.512 335.357 17.7972L335.7 16.1391C335.514 16.0614 335.451 16.0614 335.202 15.9838L334.423 15.8023C334.173 15.7505 333.862 15.7246 333.519 15.7246C332.553 15.7246 331.993 15.7505 331.4 16.0356C331.089 16.2169 330.684 16.4499 330.248 16.8645L329.998 16.8127L328.004 17.9783L328.098 17.3308H326.041L324.826 23.5478H326.789L327.506 20.206C327.506 20.206 327.786 19.7397 327.911 19.5844C328.284 19.1961 328.596 19.1961 329.001 19.1961C329.063 19.1961 329.126 19.1961 329.157 19.1961C329.094 19.5587 329.063 19.9469 329.063 20.3877C329.063 22.4079 330.435 23.6774 332.553 23.6774C333.083 23.6774 333.55 23.6258 334.267 23.4703L334.61 21.7089C333.986 21.9935 333.425 22.1235 332.958 22.1235C331.805 22.1235 331.12 21.3982 331.12 20.2578C331.12 18.5742 332.148 17.3827 333.613 17.3827Z" fill="#06326E"/>
<path fill-rule="evenodd" clip-rule="evenodd" d="M350.158 15.9044L349.721 18.0803C349.254 17.4849 348.693 17.1995 347.946 17.1995C346.917 17.1995 345.951 17.692 345.359 18.6247V18.5984L344.113 17.9766L344.237 17.3291H342.15L340.966 23.5462H342.898L343.552 20.2043C343.552 20.2043 344.05 19.738 344.175 19.5827C344.487 19.272 344.798 19.2199 345.047 19.1944C344.829 19.7123 344.705 20.3343 344.705 21.0333C344.705 22.588 345.671 23.6241 347.104 23.6241C347.821 23.6241 348.382 23.417 348.911 22.9245L348.818 23.5462H350.656L352.152 15.9043H350.158V15.9044ZM347.759 22.0702C347.104 22.0702 346.761 21.6557 346.761 20.8523C346.761 19.6345 347.384 18.7539 348.288 18.7539C348.974 18.7539 349.316 19.1945 349.316 19.9717C349.316 21.2151 348.693 22.0702 347.759 22.0702Z" fill="#06326E"/>
<path fill-rule="evenodd" clip-rule="evenodd" d="M338.754 20.7758C338.567 20.7503 338.505 20.7503 338.38 20.7503C337.259 20.7503 336.698 21.1129 336.698 21.6827C336.698 22.0715 336.978 22.3306 337.414 22.3306C338.349 22.3307 338.723 21.6828 338.754 20.7758ZM340.312 23.5476H338.598L338.661 22.9003C338.224 23.3922 337.632 23.6513 336.604 23.6513C335.638 23.6513 334.797 22.9779 334.797 21.9418C334.797 20.4652 336.137 19.559 338.256 19.559C338.474 19.559 338.816 19.559 339.097 19.5847C339.159 19.3775 339.19 19.3 339.19 19.1701C339.19 18.7557 338.785 18.6267 337.851 18.6267C337.321 18.6267 336.667 18.7039 336.231 18.8338L335.981 18.8854L335.856 18.9111L336.137 17.5125C337.041 17.2797 337.695 17.1758 338.411 17.1758C340.094 17.1758 340.967 17.8233 340.967 19.0147C340.967 19.3255 341.028 19.559 340.873 20.2324L340.468 22.4598L340.405 22.8486L340.343 23.1595L340.312 23.3666V23.5476Z" fill="#06326E"/>
<path fill-rule="evenodd" clip-rule="evenodd" d="M313.546 18.6521C313.92 18.6521 314.449 18.6784 315.01 18.7557L315.291 17.3053C314.73 17.2536 313.982 17.1758 313.546 17.1758C311.365 17.1758 310.648 18.1603 310.648 19.2999C310.648 20.051 311.053 20.5951 312.113 21.0095C312.891 21.3202 313.016 21.372 313.016 21.6573C313.016 22.0456 312.611 22.279 311.863 22.279C311.271 22.279 310.711 22.2009 310.087 22.0199L309.869 23.4441L309.9 23.4702L310.274 23.5221C310.399 23.5477 310.555 23.5739 310.773 23.5995C311.24 23.6257 311.645 23.6513 311.894 23.6513C314.076 23.6513 314.979 22.9523 314.979 21.5791C314.979 20.724 314.481 20.206 313.515 19.8434C312.673 19.5327 312.58 19.4809 312.58 19.1962C312.58 18.9111 312.954 18.6521 313.546 18.6521Z" fill="#06326E"/>
<path fill-rule="evenodd" clip-rule="evenodd" d="M336.232 15.6462L335.889 17.3038C335.203 17.019 334.705 16.8894 334.144 16.8894C332.68 16.8894 331.651 18.0809 331.651 19.7648C331.651 20.93 332.337 21.6295 333.49 21.6295C333.957 21.6295 334.518 21.5004 335.141 21.2407L334.798 22.9764C334.082 23.1318 333.614 23.2097 333.085 23.2097C330.966 23.2097 329.657 21.9403 329.657 19.8939C329.657 17.1743 331.465 15.2578 334.051 15.2578C334.393 15.2578 334.705 15.2837 334.954 15.3355L335.733 15.4909C335.983 15.5685 336.045 15.5944 336.232 15.6462Z" fill="white"/>
<path fill-rule="evenodd" clip-rule="evenodd" d="M329.936 16.7871C329.874 16.7871 329.811 16.7871 329.749 16.7871C329.094 16.7871 328.72 17.0461 328.128 17.7975L328.315 16.8389H326.539L325.324 23.0554H327.287C328.004 19.2478 328.191 18.6001 329.125 18.6001C329.187 18.6001 329.187 18.6001 329.25 18.6001C329.437 17.8492 329.686 17.305 329.998 16.8129L329.936 16.7871Z" fill="white"/>
<path fill-rule="evenodd" clip-rule="evenodd" d="M318.653 22.9768C318.124 23.1322 317.688 23.1839 317.252 23.1839C316.254 23.1839 315.693 22.7177 315.693 21.8113C315.693 21.6559 315.725 21.448 315.756 21.267L315.88 20.6453L315.974 20.1527L316.815 15.9043H318.747L318.529 16.8369H319.526L319.277 18.3656H318.28L317.75 20.956C317.719 21.0598 317.719 21.1372 317.719 21.2152C317.719 21.5261 317.906 21.6559 318.373 21.6559C318.591 21.6559 318.778 21.6559 318.903 21.6041L318.653 22.9768Z" fill="white"/>
<path fill-rule="evenodd" clip-rule="evenodd" d="M311.147 18.8094C311.147 19.5865 311.583 20.1306 312.611 20.5452C313.421 20.856 313.546 20.9596 313.546 21.2186C313.546 21.6074 313.203 21.7885 312.424 21.7885C311.832 21.7885 311.302 21.7111 310.679 21.5557L310.398 22.9801L310.492 23.0063L310.835 23.0581C310.959 23.0837 311.115 23.1099 311.365 23.1099C311.801 23.1616 312.175 23.1616 312.424 23.1616C314.48 23.1616 315.446 22.5139 315.446 21.0892C315.446 20.2341 315.041 19.7417 314.075 19.3535C313.234 19.0427 313.141 18.9646 313.141 18.6801C313.141 18.3431 313.483 18.1875 314.107 18.1875C314.48 18.1875 315.01 18.2138 315.509 18.2656L315.789 16.8406C315.29 16.7629 314.512 16.7109 314.075 16.7109C311.894 16.7111 311.115 17.6695 311.147 18.8094Z" fill="white"/>
<path fill-rule="evenodd" clip-rule="evenodd" d="M351.153 23.0565H349.314L349.408 22.4604C348.878 22.9266 348.317 23.1339 347.601 23.1339C346.167 23.1339 345.232 22.1241 345.232 20.5692C345.232 18.497 346.697 16.7355 348.411 16.7355C349.19 16.7355 349.751 17.0204 350.28 17.5906L350.716 15.4141H352.649L351.153 23.0565ZM348.286 21.606C349.19 21.606 349.813 20.7245 349.813 19.5076C349.813 18.7041 349.47 18.2898 348.785 18.2898C347.912 18.2898 347.258 19.1447 347.258 20.362C347.258 21.1914 347.601 21.606 348.286 21.606Z" fill="white"/>
<path fill-rule="evenodd" clip-rule="evenodd" d="M324.64 22.9257C323.954 23.1076 323.331 23.1848 322.614 23.1848C320.433 23.1848 319.312 22.2265 319.312 20.3869C319.312 18.2624 320.745 16.6816 322.708 16.6816C324.328 16.6816 325.356 17.5626 325.356 18.9358C325.356 19.4022 325.294 19.8424 325.107 20.4905H321.243C321.212 20.5678 321.212 20.6196 321.212 20.6714C321.212 21.3976 321.804 21.7602 322.926 21.7602C323.643 21.7602 324.266 21.6565 324.951 21.3713L324.64 22.9257ZM323.549 19.2206C323.549 19.0914 323.549 18.9879 323.549 18.9098C323.549 18.3916 323.207 18.1068 322.614 18.1068C321.991 18.1068 321.555 18.4955 321.368 19.2206H323.549Z" fill="white"/>
<path fill-rule="evenodd" clip-rule="evenodd" d="M303.699 23.0565H301.767L302.889 17.1758L300.365 23.0565H299.025L298.869 17.2275L297.685 23.0565H295.878L297.405 15.4141H300.209L300.302 20.1547L302.172 15.4141H305.226L303.699 23.0565Z" fill="white"/>
<path fill-rule="evenodd" clip-rule="evenodd" d="M308.527 20.2862C308.34 20.2862 308.247 20.2598 308.091 20.2598C307 20.2598 306.44 20.5969 306.44 21.2186C306.44 21.6074 306.689 21.8404 307.125 21.8404C307.935 21.8405 308.496 21.2188 308.527 20.2862ZM309.961 23.0581H308.34L308.371 22.41C307.873 22.9281 307.218 23.1616 306.315 23.1616C305.256 23.1616 304.539 22.4882 304.539 21.4774C304.539 19.9488 305.785 19.0683 307.966 19.0683C308.184 19.0683 308.465 19.0944 308.777 19.12C308.839 18.9129 308.839 18.8355 308.839 18.7318C308.839 18.3174 308.496 18.162 307.592 18.162C307.032 18.162 306.408 18.2138 305.972 18.3174L305.692 18.3948L305.505 18.4209L305.785 17.022C306.751 16.7888 307.406 16.7109 308.122 16.7109C309.805 16.7109 310.708 17.3328 310.708 18.5245C310.708 18.8354 310.677 19.0682 310.553 19.7678L310.116 21.97L310.054 22.3582L310.023 22.6691L309.992 22.9023L309.961 23.0581Z" fill="white"/>
<path fill-rule="evenodd" clip-rule="evenodd" d="M339.375 20.2862C339.157 20.2862 339.063 20.2598 338.939 20.2598C337.817 20.2598 337.256 20.5969 337.256 21.2186C337.256 21.6074 337.537 21.8404 337.973 21.8404C338.752 21.8405 339.344 21.2188 339.375 20.2862ZM340.808 23.0581H339.188L339.219 22.41C338.72 22.9281 338.066 23.1616 337.163 23.1616C336.103 23.1616 335.387 22.4882 335.387 21.4774C335.387 19.9488 336.633 19.0683 338.814 19.0683C339.032 19.0683 339.312 19.0944 339.593 19.12C339.655 18.9129 339.686 18.8355 339.686 18.7318C339.686 18.3174 339.344 18.162 338.44 18.162C337.879 18.162 337.225 18.2138 336.789 18.3174L336.539 18.3948L336.352 18.4209L336.633 17.022C337.599 16.7888 338.253 16.7109 338.97 16.7109C340.652 16.7109 341.525 17.3328 341.525 18.5245C341.525 18.8354 341.525 19.0682 341.369 19.7678L340.964 21.97L340.901 22.3582L340.839 22.6691L340.808 22.9023V23.0581H340.808Z" fill="white"/>
<path fill-rule="evenodd" clip-rule="evenodd" d="M346.044 16.7871C345.982 16.7871 345.919 16.7871 345.857 16.7871C345.203 16.7871 344.829 17.0461 344.237 17.7975L344.424 16.8389H342.648L341.464 23.0554H343.396C344.112 19.2478 344.299 18.6001 345.234 18.6001C345.297 18.6001 345.297 18.6001 345.359 18.6001C345.546 17.8492 345.795 17.305 346.107 16.8129L346.044 16.7871Z" fill="white"/>
<path d="M212.175 0.880289C214.119 0.880289 215.701 2.19542 215.701 3.81206V33.9044C215.701 35.521 214.12 36.8362 212.175 36.8362H148.772C146.828 36.8362 145.246 35.5211 145.246 33.9044V3.81206C145.246 2.19554 146.828 0.880289 148.772 0.880289H212.175ZM212.175 0.296875H148.772C146.437 0.296875 144.544 1.87069 144.544 3.81206V33.9044C144.544 35.8461 146.437 37.4196 148.772 37.4196H212.175C214.51 37.4196 216.403 35.8461 216.403 33.9044V3.81206C216.403 1.87069 214.51 0.296875 212.175 0.296875Z" fill="#E20613"/>
<path d="M199.257 20.9123C199.386 24.1229 199.515 27.4407 199.322 30.7049C199.193 31.9894 198.227 33.2203 196.812 33.9694C195.717 34.5582 194.365 34.6117 192.949 34.6649L187.832 34.6117L187.8 7.37363C188.057 5.55426 189.667 4.00233 191.726 3.52064C194.237 3.2532 196.554 3.3602 199.193 3.30664L199.321 4.69813V20.1633L199.257 20.2167L199.257 20.9123Z" fill="#009540"/>
<path d="M162.182 19.8952V7.0529C162.503 5.60794 163.92 4.27043 165.593 3.73511C168.103 3.09313 171 3.46768 173.575 3.41412C173.703 5.50083 173.575 8.12298 173.639 9.94225L173.768 26.6909C173.446 29.2594 174.604 32.7374 170.742 34.1822C168.297 35.1993 165.014 34.557 162.246 34.7709L162.182 34.3964V20.4302L162.182 19.8952Z" fill="#0069B3"/>
<path d="M162.182 20.43C163.211 21.5541 164.627 22.4104 166.365 22.4642C168.489 22.6244 171.257 22.7851 172.673 21.126C173.639 20.2698 173.06 19.0926 173.253 17.9686L173.188 15.9351C171.965 15.7212 170.871 15.9351 169.455 15.8815C168.747 18.0756 170.614 20.537 167.588 21.6612C166.88 21.8214 165.85 21.7143 165.142 21.3401C163.984 21.126 164.628 19.5739 163.083 20.002L162.182 19.895L162.182 20.43Z" fill="white"/>
<path d="M186.448 5.18034L186.512 31.2392C186.061 32.4702 184.903 33.8075 183.294 34.2895C180.847 34.9854 177.822 34.6638 175.119 34.6638L174.99 7.21405C175.119 5.92989 176.149 4.80616 177.501 4.1104C178.467 3.57532 179.625 3.41488 180.848 3.36133H186.319L186.448 5.18034Z" fill="#E20613"/>
<path d="M185.931 15.937C186.06 16.2581 185.931 16.5254 185.996 16.9001C184.065 16.4722 181.683 15.9903 179.946 17.1676C179.301 17.8096 178.915 18.4516 178.98 19.3076C179.173 20.2708 179.881 21.18 180.975 21.5548C182.649 21.9827 184.387 21.6081 185.931 21.287C185.995 21.5548 186.06 21.929 185.931 22.1436H178.529C177.242 21.929 176.212 21.3408 175.632 20.2708C175.118 19.2542 175.375 17.863 176.276 17.007C177.048 16.2581 178.143 15.83 179.366 15.8834L185.931 15.937Z" fill="white"/>
<path d="M199.257 20.913C199.064 21.555 198.42 22.1438 197.648 22.2509H188.637L188.315 22.1438C188.315 20.0033 188.25 17.9704 188.38 15.8837H194.108C195.91 16.0443 197.905 15.4023 198.742 16.7933C198.999 17.2749 198.935 17.9169 198.485 18.2914C198.227 18.6658 197.648 18.7193 197.52 18.987C198.227 19.1474 198.999 19.629 199.257 20.2174V20.913ZM191.533 16.5256C191.34 17.1142 191.34 17.9168 191.469 18.5587C192.821 18.5053 194.559 18.9332 195.46 18.0773C195.782 17.7563 195.589 17.2213 195.395 16.9537C194.365 16.2046 192.82 16.6863 191.533 16.5256ZM195.01 19.4681C193.786 19.3078 192.563 19.3613 191.404 19.415C191.34 20.2173 191.404 20.8593 191.533 21.6083C192.82 21.6083 194.237 21.7688 195.395 21.2872C195.717 21.0198 195.91 20.592 195.782 20.2173C195.717 19.8963 195.395 19.6289 195.01 19.4681Z" fill="white"/>
<path d="M286.075 0.296875H218.6C217.39 0.296875 216.408 1.02489 216.408 1.92271V35.7945C216.408 36.6916 217.39 37.4196 218.6 37.4196H228.781C267.258 32.0217 288.267 19.9685 288.267 19.9685V1.92271C288.267 1.02489 287.287 0.296875 286.075 0.296875Z" fill="#F1F2F2"/>
<path d="M229.967 37.417H286.075C287.285 37.417 288.266 36.689 288.266 35.7919V20.316V19.9668C288.266 19.9668 267.256 32.0194 228.779 37.417H229.967Z" fill="#F58220"/>
<path d="M253.74 7.81641C250.585 7.81641 248.023 9.82161 248.023 12.2963C248.023 14.9271 250.473 16.8938 253.74 16.8938C256.927 16.8938 259.442 14.901 259.442 12.3479C259.442 9.80924 256.943 7.81641 253.74 7.81641Z" fill="url(#paint10_radial_1509_580)"/>
<path d="M221.284 7.97852H218.21V16.6949H221.267C222.889 16.6949 224.064 16.3821 225.092 15.6893C226.312 14.8658 227.038 13.6238 227.038 12.3412C227.038 9.7677 224.673 7.97852 221.284 7.97852ZM223.727 14.5249C223.067 15.0102 222.216 15.2191 220.864 15.2191H220.302V9.45495H220.865C222.217 9.45495 223.035 9.65085 223.728 10.1595C224.452 10.6826 224.883 11.4916 224.883 12.3281C224.883 13.166 224.452 14.0039 223.727 14.5249Z" fill="#001722"/>
<path d="M230.094 7.97852H228.005V16.6949H230.094V7.97852Z" fill="#001722"/>
<path d="M235.207 11.3216C233.951 10.9428 233.582 10.6933 233.582 10.2244C233.582 9.67514 234.24 9.25716 235.142 9.25716C235.768 9.25716 236.283 9.46684 236.831 9.96113L237.922 8.79999C237.023 8.15789 235.946 7.83203 234.771 7.83203C232.876 7.83203 231.428 8.90449 231.428 10.3282C231.428 11.5313 232.103 12.1459 234.064 12.722C234.885 12.9558 235.302 13.1118 235.511 13.2191C235.929 13.4411 236.139 13.7532 236.139 14.1196C236.139 14.8264 235.447 15.3488 234.513 15.3488C233.516 15.3488 232.714 14.9439 232.231 14.1863L230.882 15.2464C231.845 16.3952 233.002 16.9066 234.596 16.9066C236.765 16.9066 238.292 15.7283 238.292 14.0426C238.293 12.656 237.588 12.0284 235.207 11.3216Z" fill="#001722"/>
<path d="M238.95 12.3421C238.95 14.9062 241.427 16.8928 244.61 16.8928C245.51 16.8928 246.282 16.7478 247.232 16.3834V14.3831C246.395 15.0629 245.655 15.3372 244.707 15.3372C242.601 15.3372 241.105 14.095 241.105 12.3298C241.105 10.6573 242.647 9.33676 244.61 9.33676C245.606 9.33676 246.362 9.6241 247.232 10.317V8.31664C246.315 7.93787 245.559 7.7832 244.658 7.7832C241.491 7.78252 238.95 9.80833 238.95 12.3421Z" fill="#001722"/>
<path d="M264.173 13.834L261.312 7.97852H259.028L263.58 16.9177H264.704L269.336 7.97852H267.069L264.173 13.834Z" fill="#001722"/>
<path d="M270.285 16.6949H276.215V15.2191H272.373V12.8649H276.069V11.3892H272.373V9.45495H276.215V7.97852H270.285V16.6949Z" fill="#001722"/>
<path d="M284.496 10.5509C284.496 8.91754 283.114 7.97852 280.702 7.97852H277.6V16.6958H279.692V13.192H279.965L282.857 16.6958H285.43L282.053 13.0235C283.63 12.7603 284.496 11.8845 284.496 10.5509ZM280.299 11.9897H279.692V9.34856H280.334C281.639 9.34856 282.347 9.79332 282.347 10.6423C282.345 11.5181 281.638 11.9897 280.299 11.9897Z" fill="#001722"/>
<path d="M285.971 8.62809C285.971 8.47497 285.845 8.39258 285.614 8.39258H285.311V9.15885H285.535V8.86086L285.799 9.15885H286.078L285.765 8.84232C285.896 8.81348 285.971 8.73452 285.971 8.62809ZM285.577 8.73177H285.535V8.53265H285.58C285.691 8.53265 285.747 8.56561 285.747 8.63084C285.747 8.69813 285.687 8.73177 285.577 8.73177Z" fill="#231F20"/>
<path d="M285.659 8.10352C285.202 8.10352 284.833 8.4035 284.833 8.77504C284.833 9.14727 285.203 9.44726 285.659 9.44726C286.106 9.44726 286.473 9.14521 286.473 8.77504C286.473 8.40694 286.106 8.10352 285.659 8.10352ZM285.657 9.32616C285.29 9.32616 284.997 9.08053 284.997 8.77642C284.997 8.46955 285.29 8.2253 285.657 8.2253C286.013 8.2253 286.307 8.47368 286.307 8.77642C286.307 9.07847 286.013 9.32616 285.657 9.32616Z" fill="#231F20"/>
<path d="M236.951 18.9863L239.749 21.3694V19.1101H240.149V22.1573L237.351 19.7805V22.0281H236.951V18.9863Z" fill="#231F20"/>
<path d="M236.914 18.9884V22.06H237.388C237.388 22.06 237.388 19.999 237.388 19.8567C237.512 19.9612 240.185 22.236 240.185 22.236V19.0819H239.711C239.711 19.0819 239.711 21.1539 239.711 21.2962C239.588 21.1904 236.914 18.9121 236.914 18.9121V18.9884ZM236.988 19.064C237.112 19.1678 239.788 21.4482 239.788 21.4482C239.788 21.4482 239.788 19.2008 239.788 19.1424C239.841 19.1424 240.056 19.1424 240.11 19.1424C240.11 19.2008 240.11 21.9425 240.11 22.0861C239.987 21.9803 237.316 19.7054 237.316 19.7054C237.316 19.7054 237.316 21.9397 237.316 21.9988C237.258 21.9988 237.043 21.9988 236.988 21.9988C236.988 21.9404 236.988 19.207 236.988 19.064Z" fill="#231F20"/>
<path d="M242.084 19.1113H243.942V19.4124H242.482V20.2799H243.9V20.5816H242.482V21.7255H243.942V22.0272H242.084V19.1113Z" fill="#231F20"/>
<path d="M243.945 19.0781H242.049V22.0576H243.983V21.6945C243.983 21.6945 242.593 21.6945 242.523 21.6945C242.523 21.6381 242.523 20.6672 242.523 20.6094C242.593 20.6094 243.94 20.6094 243.94 20.6094V20.2505C243.94 20.2505 242.593 20.2505 242.523 20.2505C242.523 20.1941 242.523 19.4983 242.523 19.4446C242.593 19.4446 243.983 19.4446 243.983 19.4446V19.0802H243.945V19.0781ZM243.909 19.1386C243.909 19.182 243.909 19.338 243.909 19.3793C243.837 19.3793 242.447 19.3793 242.447 19.3793V20.309C242.447 20.309 243.795 20.309 243.865 20.309C243.865 20.3516 243.865 20.5049 243.865 20.5503C243.795 20.5503 242.447 20.5503 242.447 20.5503V21.7564C242.447 21.7564 243.837 21.7564 243.909 21.7564C243.909 21.7997 243.909 21.9537 243.909 21.9977C243.838 21.9977 242.194 21.9977 242.123 21.9977C242.123 21.94 242.123 19.1998 242.123 19.1407C242.194 19.1386 243.838 19.1386 243.909 19.1386Z" fill="#231F20"/>
<path d="M246.766 22.0281H246.365V19.4124H245.5V19.1113H247.64V19.4124H246.766V22.0281Z" fill="#231F20"/>
<path d="M247.642 19.0781H245.463V19.4426C245.463 19.4426 246.262 19.4426 246.329 19.4426C246.329 19.5017 246.329 22.0576 246.329 22.0576H246.804C246.804 22.0576 246.804 19.5017 246.804 19.4426C246.873 19.4426 247.679 19.4426 247.679 19.4426V19.0781H247.642ZM247.605 19.1386C247.605 19.182 247.605 19.338 247.605 19.3793C247.537 19.3793 246.73 19.3793 246.73 19.3793C246.73 19.3793 246.73 21.9365 246.73 21.9957C246.675 21.9957 246.461 21.9957 246.405 21.9957C246.405 21.9365 246.405 19.3793 246.405 19.3793C246.405 19.3793 245.607 19.3793 245.54 19.3793C245.54 19.3374 245.54 19.1813 245.54 19.1386C245.609 19.1386 247.535 19.1386 247.605 19.1386Z" fill="#231F20"/>
<path d="M250.315 21.2987L251.477 18.959L252.637 21.2987L253.579 19.1117H254.013L252.638 22.1797L251.478 19.829L250.316 22.1797L248.943 19.1117H249.375L250.315 21.2987Z" fill="#231F20"/>
<path d="M251.442 18.9503C251.442 18.9503 250.386 21.0713 250.316 21.2115C250.256 21.0706 249.399 19.0822 249.399 19.0822H248.888L250.315 22.2665C250.315 22.2665 251.411 20.0472 251.476 19.9132C251.541 20.0472 252.637 22.2665 252.637 22.2665L254.064 19.0822H253.552C253.552 19.0822 252.695 21.0706 252.635 21.2115C252.564 21.0719 251.477 18.8809 251.477 18.8809L251.442 18.9503ZM250.349 21.3097C250.349 21.3097 251.411 19.175 251.476 19.0451C251.541 19.175 252.638 21.386 252.638 21.386C252.638 21.386 253.586 19.1833 253.605 19.1441C253.646 19.1441 253.881 19.1441 253.958 19.1441C253.925 19.2211 252.699 21.9551 252.635 22.096C252.567 21.9565 251.477 19.751 251.477 19.751C251.477 19.751 250.385 21.9565 250.316 22.096C250.255 21.9551 249.031 19.2197 248.995 19.1441C249.071 19.1441 249.307 19.1441 249.348 19.1441C249.365 19.184 250.315 21.386 250.315 21.386L250.349 21.3097Z" fill="#231F20"/>
<path d="M259.176 20.5738C259.176 21.4144 258.328 22.0797 257.307 22.0797C256.282 22.0797 255.438 21.413 255.438 20.5738C255.438 19.7388 256.282 19.0625 257.307 19.0625C258.328 19.0625 259.176 19.7388 259.176 20.5738ZM255.836 20.5711C255.836 21.2275 256.493 21.7766 257.307 21.7766C258.121 21.7766 258.775 21.2275 258.775 20.5711C258.775 19.9092 258.128 19.3628 257.307 19.3628C256.486 19.3628 255.836 19.9092 255.836 20.5711Z" fill="#231F20"/>
<path d="M255.402 20.5753C255.402 21.4223 256.259 22.1112 257.31 22.1112C258.361 22.1112 259.217 21.4223 259.217 20.5753C259.217 19.7242 258.361 19.0332 257.31 19.0332C256.259 19.0339 255.402 19.7242 255.402 20.5753ZM255.476 20.5753C255.476 19.7585 256.299 19.0944 257.31 19.0944C258.318 19.0944 259.144 19.7592 259.144 20.5753C259.144 21.3893 258.318 22.0507 257.31 22.0507C256.299 22.0514 255.476 21.3893 255.476 20.5753Z" fill="#231F20"/>
<path d="M255.802 20.5728C255.802 21.2563 256.48 21.8097 257.311 21.8097C258.14 21.8097 258.816 21.2563 258.816 20.5728C258.816 19.8894 258.14 19.3359 257.311 19.3359C256.48 19.3359 255.802 19.8894 255.802 20.5728ZM255.879 20.5728C255.879 19.9245 256.521 19.3951 257.311 19.3951C258.1 19.3951 258.741 19.9245 258.741 20.5728C258.741 21.2212 258.1 21.7506 257.311 21.7506C256.521 21.7506 255.879 21.2219 255.879 20.5728Z" fill="#231F20"/>
<path d="M261.306 22.0281H260.907V19.1113H261.425C262.105 19.1113 262.737 19.2591 262.737 19.9156C262.737 20.3632 262.393 20.6814 261.839 20.7199L262.98 22.0268H262.49L261.407 20.7467H261.306V22.0281ZM261.306 20.4615H261.43C261.88 20.4615 262.338 20.3927 262.338 19.939C262.338 19.4612 261.905 19.4124 261.425 19.4124H261.305V20.4615H261.306Z" fill="#231F20"/>
<path d="M260.909 19.0781H260.872V22.0592H261.347C261.347 22.0592 261.347 20.8359 261.347 20.7781C261.375 20.7781 261.406 20.7781 261.408 20.7781C261.408 20.7995 262.463 22.0468 262.463 22.0468L262.982 22.0612H263.056C263.056 22.0612 261.96 20.8077 261.905 20.7403C262.434 20.6811 262.777 20.3654 262.777 19.9168C262.777 19.354 262.336 19.0809 261.428 19.0809H260.909V19.0781ZM261.428 19.1387C262.296 19.1387 262.702 19.3843 262.702 19.914C262.702 20.3482 262.364 20.6529 261.838 20.6894L261.773 20.6949C261.773 20.6949 262.835 21.9085 262.913 21.9973C262.807 21.9973 262.495 21.9973 262.494 21.9973H262.494C262.494 21.9766 261.44 20.7286 261.44 20.7286L261.31 20.7162H261.272C261.272 20.7162 261.272 21.9388 261.272 21.9966C261.219 21.9966 261.002 21.9966 260.948 21.9966C260.948 21.9388 260.948 19.1971 260.948 19.138C261.01 19.1387 261.428 19.1387 261.428 19.1387Z" fill="#231F20"/>
<path d="M261.311 19.3822H261.272V20.4925H261.434C261.874 20.4925 262.38 20.4292 262.38 19.9398C262.38 19.4249 261.89 19.3809 261.43 19.3809L261.311 19.3822ZM261.431 19.4456C261.892 19.4456 262.306 19.482 262.306 19.9405C262.306 20.3741 261.866 20.4333 261.436 20.4333C261.436 20.4333 261.385 20.4333 261.349 20.4333C261.349 20.3769 261.349 19.5013 261.349 19.4456C261.385 19.4456 261.431 19.4456 261.431 19.4456Z" fill="#231F20"/>
<path d="M266.607 19.1113H267.144L265.462 20.47L267.202 22.0272H266.651L265.18 20.6899L265.081 20.7682V22.0272H264.681V19.112H265.081V20.36L266.607 19.1113Z" fill="#231F20"/>
<path d="M267.141 19.0781H266.59C266.59 19.0781 265.232 20.1893 265.116 20.2856C265.116 20.1542 265.116 19.0781 265.116 19.0781H264.641V22.0576H265.116C265.116 22.0576 265.116 20.78 265.116 20.7731C265.12 20.7745 265.15 20.7518 265.173 20.7318C265.225 20.7758 266.62 22.0479 266.62 22.0479L267.2 22.0576H267.286C267.286 22.0576 265.558 20.5104 265.508 20.4699C265.561 20.4279 267.232 19.0781 267.232 19.0781H267.141ZM267.05 19.1386C266.929 19.237 265.405 20.4671 265.405 20.4671C265.405 20.4671 267.008 21.9001 267.113 21.9957C266.99 21.9957 266.646 21.9957 266.646 21.9957C266.646 21.9812 265.202 20.6672 265.202 20.6672L265.177 20.6431L265.05 20.7463C265.05 20.7463 265.04 21.9372 265.04 21.995C264.983 21.995 264.769 21.995 264.714 21.995C264.714 21.9372 264.714 19.1971 264.714 19.1379C264.767 19.1379 264.981 19.1379 265.04 19.1379C265.04 19.1964 265.04 20.4314 265.04 20.4314C265.04 20.4314 266.599 19.1551 266.618 19.1379C266.643 19.1386 266.928 19.1386 267.05 19.1386Z" fill="#231F20"/>
<defs>
<radialGradient id="paint0_radial_1509_580" cx="0" cy="0" r="1" gradientUnits="userSpaceOnUse" gradientTransform="translate(14.9117 -0.686892) scale(71.8721 59.7556)">
<stop stop-color="#00B1E7"/>
<stop offset="0.427" stop-color="#0098CD"/>
<stop offset="0.5244" stop-color="#008DBE"/>
<stop offset="0.8403" stop-color="#006C91"/>
<stop offset="1" stop-color="#005F80"/>
</radialGradient>
<radialGradient id="paint1_radial_1509_580" cx="0" cy="0" r="1" gradientUnits="userSpaceOnUse" gradientTransform="translate(14.9127 -0.684715) scale(71.8674 59.7517)">
<stop stop-color="#00B1E7"/>
<stop offset="0.427" stop-color="#0098CD"/>
<stop offset="0.5244" stop-color="#008DBE"/>
<stop offset="0.8403" stop-color="#006C91"/>
<stop offset="1" stop-color="#005F80"/>
</radialGradient>
<radialGradient id="paint2_radial_1509_580" cx="0" cy="0" r="1" gradientUnits="userSpaceOnUse" gradientTransform="translate(14.9115 -0.683528) scale(71.8683 59.7455)">
<stop stop-color="#00B1E7"/>
<stop offset="0.427" stop-color="#0098CD"/>
<stop offset="0.5244" stop-color="#008DBE"/>
<stop offset="0.8403" stop-color="#006C91"/>
<stop offset="1" stop-color="#005F80"/>
</radialGradient>
<radialGradient id="paint3_radial_1509_580" cx="0" cy="0" r="1" gradientUnits="userSpaceOnUse" gradientTransform="translate(14.9088 -0.681914) scale(71.8741 59.7511)">
<stop stop-color="#00B1E7"/>
<stop offset="0.427" stop-color="#0098CD"/>
<stop offset="0.5244" stop-color="#008DBE"/>
<stop offset="0.8403" stop-color="#006C91"/>
<stop offset="1" stop-color="#005F80"/>
</radialGradient>
<radialGradient id="paint4_radial_1509_580" cx="0" cy="0" r="1" gradientUnits="userSpaceOnUse" gradientTransform="translate(14.9111 -0.679129) scale(71.8693 59.7348)">
<stop stop-color="#00B1E7"/>
<stop offset="0.427" stop-color="#0098CD"/>
<stop offset="0.5244" stop-color="#008DBE"/>
<stop offset="0.8403" stop-color="#006C91"/>
<stop offset="1" stop-color="#005F80"/>
</radialGradient>
<radialGradient id="paint5_radial_1509_580" cx="0" cy="0" r="1" gradientUnits="userSpaceOnUse" gradientTransform="translate(14.9136 -0.681059) scale(71.867 59.7368)">
<stop stop-color="#00B1E7"/>
<stop offset="0.427" stop-color="#0098CD"/>
<stop offset="0.5244" stop-color="#008DBE"/>
<stop offset="0.8403" stop-color="#006C91"/>
<stop offset="1" stop-color="#005F80"/>
</radialGradient>
<radialGradient id="paint6_radial_1509_580" cx="0" cy="0" r="1" gradientUnits="userSpaceOnUse" gradientTransform="translate(14.9128 -0.688574) scale(71.8719 59.748)">
<stop stop-color="#00B1E7"/>
<stop offset="0.427" stop-color="#0098CD"/>
<stop offset="0.5244" stop-color="#008DBE"/>
<stop offset="0.8403" stop-color="#006C91"/>
<stop offset="1" stop-color="#005F80"/>
</radialGradient>
<radialGradient id="paint7_radial_1509_580" cx="0" cy="0" r="1" gradientUnits="userSpaceOnUse" gradientTransform="translate(14.9144 -0.688161) scale(71.8665 59.749)">
<stop stop-color="#00B1E7"/>
<stop offset="0.427" stop-color="#0098CD"/>
<stop offset="0.5244" stop-color="#008DBE"/>
<stop offset="0.8403" stop-color="#006C91"/>
<stop offset="1" stop-color="#005F80"/>
</radialGradient>
<radialGradient id="paint8_radial_1509_580" cx="0" cy="0" r="1" gradientUnits="userSpaceOnUse" gradientTransform="translate(14.912 -0.686565) scale(71.8707 59.7408)">
<stop stop-color="#00B1E7"/>
<stop offset="0.427" stop-color="#0098CD"/>
<stop offset="0.5244" stop-color="#008DBE"/>
<stop offset="0.8403" stop-color="#006C91"/>
<stop offset="1" stop-color="#005F80"/>
</radialGradient>
<radialGradient id="paint9_radial_1509_580" cx="0" cy="0" r="1" gradientUnits="userSpaceOnUse" gradientTransform="translate(14.9098 -0.688159) scale(71.8659 59.7475)">
<stop stop-color="#00B1E7"/>
<stop offset="0.427" stop-color="#0098CD"/>
<stop offset="0.5244" stop-color="#008DBE"/>
<stop offset="0.8403" stop-color="#006C91"/>
<stop offset="1" stop-color="#005F80"/>
</radialGradient>
<radialGradient id="paint10_radial_1509_580" cx="0" cy="0" r="1" gradientUnits="userSpaceOnUse" gradientTransform="translate(253.733 12.3548) scale(5.6458 4.59073)">
<stop offset="0.0056" stop-color="#FFEEE0"/>
<stop offset="0.1096" stop-color="#FEE9D7"/>
<stop offset="0.2793" stop-color="#FDDBBF"/>
<stop offset="0.4935" stop-color="#FBC597"/>
<stop offset="0.744" stop-color="#F8A560"/>
<stop offset="1" stop-color="#F48120"/>
</radialGradient>
</defs>
</svg>
