<svg width="113" height="30" viewBox="0 0 113 30" fill="none" xmlns="http://www.w3.org/2000/svg">
<path d="M111.862 16.4142C112.643 15.6332 112.643 14.3668 111.862 13.5858L99.1344 0.857864C98.3534 0.0768156 97.0871 0.0768156 96.306 0.857864C95.525 1.63891 95.525 2.90524 96.306 3.68629L107.62 15L96.306 26.3137C95.525 27.0948 95.525 28.3611 96.306 29.1421C97.0871 29.9232 98.3534 29.9232 99.1344 29.1421L111.862 16.4142ZM0 17H3.4515V13H0V17ZM10.3545 17H17.2575V13H10.3545V17ZM24.1605 17H31.0635V13H24.1605V17ZM37.9666 17H44.8696V13H37.9666V17ZM51.7726 17H58.6756V13H51.7726V17ZM65.5786 17H72.4816V13H65.5786V17ZM79.3846 17H86.2876V13H79.3846V17ZM93.1906 17H100.094V13H93.1906V17ZM106.997 17H110.448V13H106.997V17Z" fill="black"/>
</svg>
