<svg width="43" height="43" viewBox="0 0 43 43" fill="none" xmlns="http://www.w3.org/2000/svg">
<path d="M4.74173 9.58531L9.87924 4.85134C10.0606 4.68316 10.2736 4.55273 10.5057 4.46764C10.7378 4.38255 10.9845 4.34448 11.2315 4.35565C11.4784 4.36682 11.7207 4.427 11.9442 4.53271C12.1677 4.63841 12.3681 4.78753 12.5336 4.97141L16.0785 8.89923C15.9072 9.12221 15.3764 9.63677 14.6914 10.4944L12.585 13.2559C12.5295 13.3237 12.4835 13.3987 12.448 13.4788C11.8632 14.5115 11.4989 15.6544 11.378 16.8354C11.2571 18.0164 11.3824 19.2097 11.7459 20.3396C12.5792 22.6217 13.9001 24.6939 15.6161 26.4115C17.196 28.2674 19.199 29.7147 21.4558 30.6309C22.5191 31.0522 23.6676 31.2129 24.8055 31.0995C25.9435 30.9861 27.0379 30.602 27.9975 29.9791L30.9088 28.0752C31.8164 27.4749 32.3815 26.9775 32.6213 26.8231L36.1661 30.6823C36.3373 30.8618 36.4707 31.0739 36.5584 31.306C36.6461 31.5381 36.6864 31.7854 36.6768 32.0334C36.6672 32.2814 36.6079 32.5249 36.5026 32.7495C36.3972 32.9741 36.2479 33.1752 36.0634 33.3409L30.9259 38.092C29.4703 39.4127 26.4734 39.5499 23.1683 38.5551C20.0469 37.6258 17.1931 35.9613 14.8455 33.7011L7.75573 26.0684C5.70434 23.534 4.28387 20.5475 3.61148 17.3552C2.90935 13.9762 3.2861 10.9918 4.74173 9.58531ZM2.54973 7.28694C-0.258779 9.85974 -0.378653 14.1478 0.443348 18.0241C1.19356 21.8165 2.89029 25.357 5.37535 28.3154L12.4137 35.9995C15.1315 38.7213 18.4968 40.7047 22.1921 41.7626C26.0281 42.9289 30.2409 43.1519 33.0494 40.5619L38.1869 35.8279C39.1807 34.9059 39.7707 33.628 39.8284 32.2724C39.8861 30.9168 39.4069 29.5933 38.4951 28.5898L35.0188 24.7306C34.5744 24.1932 33.977 23.8042 33.3063 23.6157C32.6432 23.4867 31.9561 23.5833 31.354 23.8901C30.5856 24.3403 29.8579 24.8568 29.1791 25.4338L26.285 27.3548C25.7545 27.7161 25.1392 27.9329 24.4997 27.984C23.8602 28.0351 23.2184 27.9188 22.6374 27.6464C20.8656 26.8697 19.2955 25.6961 18.0479 24.216C16.668 22.825 15.5946 21.1598 14.8969 19.3277C14.6384 18.6223 14.5411 17.8678 14.6123 17.1198C14.6834 16.3717 14.9211 15.6492 15.3079 15.0054L17.3457 12.4497C17.9723 11.8121 18.5451 11.1237 19.0582 10.3915C19.4112 9.81701 19.562 9.14069 19.4864 8.47043C19.3665 7.7682 19.0313 7.12076 18.5274 6.61801L14.914 2.84456C13.9934 1.84919 12.7175 1.2583 11.3641 1.20048C10.0106 1.14266 8.68913 1.62259 7.68723 2.53582L2.54973 7.28694Z" fill="#48B774"/>
<path d="M5.08574 4.90295C4.80174 5.21812 4.64453 5.62759 4.64453 6.05214C4.64453 6.47669 4.80174 6.88616 5.08574 7.20133L12.1755 14.9369C12.4794 15.2334 12.8824 15.4063 13.3064 15.4221C13.7304 15.4379 14.1451 15.2956 14.4703 15.0227C14.6268 14.8798 14.7537 14.7074 14.8437 14.5153C14.9336 14.3233 14.9848 14.1153 14.9943 13.9034C15.0039 13.6915 14.9716 13.4798 14.8993 13.2804C14.827 13.081 14.7161 12.8978 14.573 12.7414L7.39762 5.00586C7.25455 4.8439 7.08041 4.71242 6.88557 4.61925C6.69073 4.52607 6.47916 4.47311 6.26346 4.4635C6.04776 4.4539 5.83234 4.48786 5.63001 4.56335C5.42768 4.63885 5.24259 4.75434 5.08574 4.90295Z" fill="#48B774"/>
<path d="M26.3709 28.0753C26.0869 28.3905 25.9297 28.8 25.9297 29.2245C25.9297 29.6491 26.0869 30.0585 26.3709 30.3737L33.4778 38.1093C33.7685 38.4254 34.1726 38.613 34.6014 38.6307C35.0301 38.6484 35.4483 38.4947 35.764 38.2036C36.0796 37.9125 36.2669 37.5077 36.2846 37.0782C36.3022 36.6488 36.1488 36.23 35.8582 35.9138L28.6828 28.1782C28.5397 28.0163 28.3656 27.8848 28.1707 27.7916C27.9759 27.6984 27.7643 27.6455 27.5486 27.6359C27.3329 27.6263 27.1175 27.6602 26.9152 27.7357C26.7128 27.8112 26.5277 27.9267 26.3709 28.0753Z" fill="#48B774"/>
<path d="M27.2239 7.87015C26.9882 8.08849 26.823 8.37245 26.7496 8.68555C26.6762 8.99864 26.698 9.32656 26.8122 9.62715C26.9264 9.92774 27.1277 10.1873 27.3902 10.3724C27.6528 10.5575 27.9646 10.6597 28.2857 10.6659C29.2973 10.7149 30.2485 11.1625 30.9318 11.9112C31.6152 12.6599 31.9752 13.6489 31.9333 14.6624C31.9254 14.8741 31.9593 15.0853 32.0329 15.2839C32.1065 15.4826 32.2185 15.6647 32.3624 15.82C32.5063 15.9753 32.6794 16.1007 32.8717 16.189C33.0639 16.2773 33.2717 16.3268 33.4831 16.3347C33.6945 16.3426 33.9054 16.3087 34.1037 16.2349C34.302 16.1612 34.4839 16.0491 34.6389 15.9049C34.794 15.7608 34.9192 15.5875 35.0073 15.3949C35.0955 15.2023 35.1449 14.9942 35.1528 14.7824C35.2112 13.8359 35.0775 12.8874 34.7596 11.9941C34.4417 11.1009 33.9463 10.2814 33.3033 9.58536C32.0323 8.21379 30.2722 7.40014 28.4055 7.32129C27.9549 7.34122 27.5302 7.53846 27.2239 7.87015Z" fill="#48B774"/>
<path d="M27.3997 1.12931C27.1926 1.35887 27.0558 1.64326 27.0057 1.94853C26.9556 2.2538 26.9942 2.56708 27.117 2.85097C27.2397 3.13486 27.4415 3.37738 27.6981 3.54959C27.9547 3.7218 28.2553 3.81643 28.5642 3.82219C29.9581 3.8795 31.3271 4.21185 32.5926 4.80018C33.858 5.38851 34.9951 6.22125 35.9385 7.25064C36.882 8.28004 37.6132 9.48584 38.0904 10.7989C38.5676 12.112 38.7813 13.5065 38.7193 14.9024C38.6954 15.3464 38.8445 15.7823 39.1352 16.1182C39.4259 16.4542 39.8355 16.664 40.2777 16.7034C40.7319 16.7034 41.1675 16.5227 41.4886 16.201C41.8098 15.8793 41.9902 15.4431 41.9902 14.9882C42.0658 13.1668 41.7811 11.3484 41.1523 9.63766C40.5235 7.92693 39.5631 6.35765 38.3264 5.02015C37.0897 3.68265 35.6011 2.60333 33.9462 1.84432C32.2914 1.08532 30.503 0.661615 28.684 0.5976C28.4439 0.584503 28.2039 0.625467 27.9816 0.71748C27.7594 0.809494 27.5605 0.950219 27.3997 1.12931Z" fill="#48B774"/>
<path d="M24.397 15.6227C24.2407 15.7668 24.1142 15.9404 24.0249 16.1335C23.9356 16.3266 23.8851 16.5354 23.8764 16.748C23.8676 16.9607 23.9008 17.1729 23.9739 17.3727C24.0471 17.5725 24.1588 17.7559 24.3028 17.9125C24.4467 18.069 24.62 18.1956 24.8128 18.2851C25.0056 18.3746 25.2141 18.4251 25.4264 18.4339C25.6386 18.4426 25.8506 18.4094 26.0501 18.3362C26.2495 18.2629 26.4327 18.151 26.589 18.0068L27.8733 16.8233C28.189 16.5322 28.3762 16.1274 28.3939 15.698C28.4116 15.2685 28.2582 14.8497 27.9675 14.5335C27.6768 14.2174 27.2727 14.0298 26.8439 14.0121C26.4152 13.9944 25.997 14.148 25.6813 14.4392L24.397 15.6227Z" fill="#48B774"/>
</svg>
