<svg width="18" height="12" viewBox="0 0 18 12" fill="none" xmlns="http://www.w3.org/2000/svg">
<path d="M17.6131 1.89101C17.5114 1.52796 17.3131 1.19927 17.0395 0.939887C16.7581 0.672527 16.4132 0.481278 16.0374 0.384192C14.631 0.0134793 8.99613 0.0134794 8.99613 0.0134794C6.64703 -0.0132474 4.29851 0.104304 1.96382 0.365469C1.58801 0.469728 1.24379 0.66525 0.961772 0.934644C0.684673 1.20126 0.483964 1.53003 0.379116 1.89026C0.127251 3.2471 0.00487753 4.6248 0.0136458 6.0048C0.00465884 7.38355 0.126732 8.7608 0.379116 10.1193C0.481717 10.4781 0.681678 10.8053 0.959525 11.0697C1.23737 11.3341 1.58337 11.525 1.96382 11.6262C3.389 11.9961 8.99613 11.9961 8.99613 11.9961C11.3482 12.0229 13.6997 11.9053 16.0374 11.6441C16.4132 11.547 16.7581 11.3558 17.0395 11.0884C17.3166 10.8241 17.5135 10.4953 17.6124 10.1373C17.8708 8.78099 17.9965 7.40271 17.9876 6.02202C18.007 4.63548 17.8815 3.25071 17.6131 1.89026V1.89101ZM7.20472 8.56908V3.44126L11.8929 6.00555L7.20472 8.56908Z" fill="#343434"/>
</svg>
