<svg width="18" height="10" viewBox="0 0 18 10" fill="none" xmlns="http://www.w3.org/2000/svg">
<path d="M15.1875 10H9V0.850694C9.64453 0.283565 10.3945 0 11.25 0C12.1875 0 12.9844 0.324074 13.6406 0.972222C14.2969 1.62037 14.625 2.40741 14.625 3.33333C14.625 3.76157 14.543 4.17245 14.3789 4.56597C14.6719 4.48495 14.9414 4.44444 15.1875 4.44444C15.9609 4.44444 16.623 4.71644 17.1738 5.26042C17.7246 5.8044 18 6.45833 18 7.22222C18 7.98611 17.7246 8.64005 17.1738 9.18403C16.623 9.72801 15.9609 10 15.1875 10ZM7.875 10H6.75V2.29167C7.16016 2.37269 7.53516 2.54051 7.875 2.79514V10ZM4.5 2.79514C4.82812 2.54051 5.20312 2.37269 5.625 2.29167V10H4.5V2.79514ZM2.25 9.94792V4.49653C2.4375 4.46181 2.625 4.44444 2.8125 4.44444C2.98828 4.44444 3.17578 4.46759 3.375 4.51389V10H2.8125C2.625 10 2.4375 9.98264 2.25 9.94792ZM1.125 5.01736V9.42708C0.773438 9.17245 0.498047 8.85127 0.298828 8.46354C0.0996094 8.07581 0 7.66204 0 7.22222C0 6.78241 0.0996094 6.36863 0.298828 5.9809C0.498047 5.59317 0.773438 5.27199 1.125 5.01736Z" fill="#343434"/>
</svg>
