<svg width="14" height="14" viewBox="0 0 14 14" fill="none" xmlns="http://www.w3.org/2000/svg">
<path d="M6.99708 0C3.13892 0 0 3.1395 0 6.99767C0 10.8593 3.13892 14 6.99708 14C10.8587 14 14 10.8587 14 6.99767C14 3.1395 10.8587 0 6.99708 0ZM3.44633 9.569C4.2475 9.32358 5.08059 9.19816 5.9185 9.19683C7.32667 9.19683 8.71675 9.55383 9.93883 10.2293C10.0117 10.269 10.0777 10.3997 10.108 10.563C10.1372 10.7263 10.1255 10.8937 10.0777 10.9807C10.0551 11.022 10.0246 11.0585 9.98787 11.0879C9.95113 11.1174 9.90891 11.1393 9.86366 11.1523C9.81841 11.1653 9.77102 11.1692 9.72424 11.1638C9.67747 11.1584 9.63223 11.1437 9.59117 11.1207C8.69353 10.6282 7.70614 10.3211 6.68757 10.2175C5.66899 10.1139 4.63999 10.2159 3.66158 10.5175C3.61667 10.532 3.56931 10.5375 3.52227 10.5335C3.47523 10.5295 3.42945 10.5163 3.38759 10.4944C3.34574 10.4726 3.30864 10.4427 3.27847 10.4064C3.24829 10.3701 3.22564 10.3281 3.21183 10.283C3.14942 10.0788 3.27833 9.62383 3.44633 9.569ZM3.14125 6.99067C4.04632 6.74478 4.98004 6.62022 5.91792 6.62025C7.60608 6.62025 9.282 7.02858 10.7654 7.80208C10.8698 7.85458 10.9462 7.94442 10.9812 8.05408C10.9989 8.10946 11.0054 8.16783 11.0002 8.22573C10.995 8.28364 10.9782 8.33992 10.9509 8.39125C10.8185 8.65025 10.6633 8.82467 10.5659 8.82467C10.4948 8.82435 10.4249 8.80716 10.3617 8.7745C8.99045 8.05857 7.46543 7.68737 5.9185 7.693C5.05804 7.69127 4.20132 7.80607 3.37167 8.03425C3.31632 8.04938 3.25853 8.05346 3.20161 8.04626C3.14469 8.03905 3.08974 8.02071 3.03991 7.99227C2.99007 7.96384 2.94633 7.92586 2.91117 7.88052C2.87601 7.83517 2.85013 7.78335 2.835 7.728C2.76967 7.48183 2.91958 7.05133 3.14125 6.99067ZM3.0625 5.30717C2.99684 5.32402 2.9285 5.3277 2.86141 5.31799C2.79432 5.30829 2.72982 5.2854 2.67163 5.25063C2.61343 5.21587 2.5627 5.16993 2.52236 5.11545C2.48202 5.06098 2.45287 4.99905 2.43658 4.93325C2.36483 4.64275 2.54625 4.30558 2.80992 4.23908C3.82696 3.98858 4.87048 3.86147 5.91792 3.8605C7.93042 3.8605 9.85892 4.31317 11.6486 5.20625C11.7715 5.26739 11.8652 5.37486 11.909 5.50503C11.9527 5.6352 11.943 5.77741 11.8819 5.90042C11.7985 6.06842 11.6177 6.24925 11.4182 6.24925C11.3399 6.24896 11.2627 6.23164 11.1918 6.1985C9.55534 5.37754 7.74878 4.95272 5.91792 4.95833C4.96417 4.95833 4.00342 5.07558 3.0625 5.30717Z" fill="#343434"/>
</svg>
